<svg width="43" height="43" viewBox="0 0 43 43" fill="none" xmlns="http://www.w3.org/2000/svg">
<rect width="43" height="43" rx="21.5" fill="#DF637A"/>
<path d="M30.8335 15.6667H26.1668V13.3333L23.8335 11H19.1668L16.8335 13.3333V15.6667H12.1668C10.8835 15.6667 9.8335 16.7167 9.8335 18V23.8333C9.8335 24.7083 10.3002 25.4433 11.0002 25.8517V29.6667C11.0002 30.9617 12.0385 32 13.3335 32H29.6668C30.9618 32 32.0002 30.9617 32.0002 29.6667V25.84C32.6885 25.4317 33.1668 24.685 33.1668 23.8333V18C33.1668 16.7167 32.1168 15.6667 30.8335 15.6667ZM19.1668 13.3333H23.8335V15.6667H19.1668V13.3333ZM12.1668 18H30.8335V23.8333H25.0002V20.3333H18.0002V23.8333H12.1668V18ZM22.6668 25H20.3335V22.6667H22.6668V25ZM29.6668 29.6667H13.3335V26.1667H18.0002V27.3333H25.0002V26.1667H29.6668V29.6667Z" fill="white"/>
</svg>
