<svg width="43" height="43" viewBox="0 0 43 43" fill="none" xmlns="http://www.w3.org/2000/svg">
<rect width="43" height="43" rx="21.5" fill="#DF637A"/>
<path d="M25 9.25H18V11.5833H25V9.25ZM20.3333 24.4167H22.6667V17.4167H20.3333V24.4167ZM29.7017 16.705L31.3583 15.0483C30.8567 14.4533 30.3083 13.8933 29.7133 13.4033L28.0567 15.06C26.2483 13.6133 23.9733 12.75 21.5 12.75C15.7017 12.75 11 17.4517 11 23.25C11 29.0483 15.69 33.75 21.5 33.75C27.31 33.75 32 29.0483 32 23.25C32 20.7767 31.1367 18.5017 29.7017 16.705ZM21.5 31.4167C16.985 31.4167 13.3333 27.765 13.3333 23.25C13.3333 18.735 16.985 15.0833 21.5 15.0833C26.015 15.0833 29.6667 18.735 29.6667 23.25C29.6667 27.765 26.015 31.4167 21.5 31.4167Z" fill="white"/>
</svg>
