<svg width="43" height="43" viewBox="0 0 43 43" fill="none" xmlns="http://www.w3.org/2000/svg">
<rect width="43" height="43" rx="21.5" fill="#DF637A"/>
<path d="M21.4998 21.4997C20.2165 21.4997 19.1665 20.4497 19.1665 19.1663C19.1665 17.883 20.2165 16.833 21.4998 16.833C22.7832 16.833 23.8332 17.883 23.8332 19.1663C23.8332 20.4497 22.7832 21.4997 21.4998 21.4997ZM28.4998 19.3997C28.4998 15.1647 25.4082 12.1663 21.4998 12.1663C17.5915 12.1663 14.4998 15.1647 14.4998 19.3997C14.4998 22.1297 16.7748 25.7463 21.4998 30.063C26.2248 25.7463 28.4998 22.1297 28.4998 19.3997ZM21.4998 9.83301C26.3998 9.83301 30.8332 13.5897 30.8332 19.3997C30.8332 23.273 27.7182 27.858 21.4998 33.1663C15.2815 27.858 12.1665 23.273 12.1665 19.3997C12.1665 13.5897 16.5998 9.83301 21.4998 9.83301Z" fill="white"/>
</svg>
