<svg width="43" height="43" viewBox="0 0 43 43" fill="none" xmlns="http://www.w3.org/2000/svg">
<rect width="43" height="43" rx="21.5" fill="#DF637A"/>
<path d="M22.1362 11.3184C24.6162 11.3184 26.912 11.7556 28.629 12.507C29.4853 12.8821 30.2463 13.3558 30.8068 13.9367C31.3266 14.4726 31.7124 15.1457 31.7735 15.9259L31.7821 16.1413V26.859C31.7821 27.7314 31.3738 28.4774 30.8068 29.0637C30.2463 29.6446 29.4853 30.1183 28.629 30.4934C26.912 31.2436 24.6162 31.682 22.1362 31.682C19.6561 31.682 17.3604 31.2447 15.6434 30.4934C14.787 30.1183 14.0261 29.6446 13.4655 29.0637C12.9457 28.5278 12.5599 27.8547 12.4988 27.0745L12.4902 26.859V16.1413C12.4902 15.2689 12.8986 14.523 13.4655 13.9367C14.0261 13.3558 14.787 12.8821 15.6434 12.507C17.3604 11.7567 19.6561 11.3184 22.1362 11.3184ZM29.6386 24.6158C29.3137 24.8105 28.9764 24.9838 28.629 25.1346C26.912 25.8848 24.6162 26.3231 22.1362 26.3231C19.6561 26.3231 17.3604 25.8859 15.6434 25.1346C15.2959 24.9838 14.9587 24.8105 14.6338 24.6158V26.859C14.6338 27.0219 14.7045 27.262 15.0068 27.5739C15.3133 27.8911 15.8084 28.2255 16.5029 28.5299C17.8898 29.1365 19.8801 29.5385 22.1362 29.5385C24.3922 29.5385 26.3825 29.1365 27.7694 28.5299C28.4639 28.2255 28.9591 27.8911 29.2656 27.5739C29.5678 27.2631 29.6386 27.0219 29.6386 26.859V24.6158ZM29.6386 19.257C29.3137 19.4516 28.9764 19.6249 28.629 19.7757C26.912 20.5259 24.6162 20.9643 22.1362 20.9643C19.6561 20.9643 17.3604 20.527 15.6434 19.7757C15.2959 19.6249 14.9587 19.4517 14.6338 19.257V21.5002C14.6338 21.6631 14.7045 21.9032 15.0068 22.215C15.3133 22.5323 15.8084 22.8667 16.5029 23.1711C17.8898 23.7777 19.8801 24.1796 22.1362 24.1796C24.3922 24.1796 26.3825 23.7777 27.7694 23.1711C28.4639 22.8667 28.9591 22.5323 29.2656 22.215C29.5678 21.9042 29.6386 21.6631 29.6386 21.5002V19.257ZM22.1362 13.4619C19.8801 13.4619 17.8898 13.8638 16.5029 14.4704C15.8084 14.7748 15.3133 15.1092 15.0068 15.4265C14.7045 15.7373 14.6338 15.9784 14.6338 16.1413C14.6338 16.3042 14.7045 16.5443 15.0068 16.8562C15.3133 17.1734 15.8084 17.5078 16.5029 17.8122C17.8898 18.4188 19.8801 18.8208 22.1362 18.8208C24.3922 18.8208 26.3825 18.4188 27.7694 17.8122C28.4639 17.5078 28.9591 17.1734 29.2656 16.8562C29.5678 16.5454 29.6386 16.3042 29.6386 16.1413C29.6386 15.9784 29.5678 15.7383 29.2656 15.4265C28.9591 15.1092 28.4639 14.7748 27.7694 14.4704C26.3825 13.8638 24.3922 13.4619 22.1362 13.4619Z" fill="white"/>
</svg>
