<svg width="40" height="40" viewBox="0 0 40 40" fill="none" xmlns="http://www.w3.org/2000/svg">
<g clip-path="url(#clip0_2002_1305)">
<path d="M20 0.833496C31.0216 0.833496 40 8.16779 40 17.1606C39.9999 20.7612 38.5943 24.0038 35.708 27.2085C31.5094 32.0725 22.137 37.9733 20 38.8784C17.8632 39.7833 18.1818 38.3133 18.2568 37.8042C18.2943 37.6031 18.3881 37.031 18.5381 36.0884C18.613 35.5606 18.6875 34.7692 18.4814 34.2603C18.2565 33.6947 17.3758 33.4111 16.7197 33.2603C7.10422 31.9971 0.00028628 25.2295 0 17.1606C0 8.16779 8.9597 0.833499 20 0.833496ZM6.62305 12.5034C6.41686 12.5034 6.24805 12.674 6.24805 12.8813V21.6665C6.24814 21.8738 6.41692 22.0435 6.62305 22.0435H12.2461C12.4522 22.0435 12.621 21.8738 12.6211 21.6665V20.2339C12.6211 20.0265 12.4523 19.8569 12.2461 19.8569H8.42285V12.8813C8.42285 12.6741 8.25388 12.5036 8.04785 12.5034H6.62305ZM14.1953 12.5034C13.9884 12.5035 13.8203 12.6732 13.8203 12.8813V21.6665C13.8204 21.8746 13.9885 22.0434 14.1953 22.0435H15.6201C15.8269 22.0433 15.9941 21.8745 15.9941 21.6665V12.8813C15.9941 12.6732 15.827 12.5036 15.6201 12.5034H14.1953ZM17.7568 12.5034C17.5507 12.5035 17.3633 12.674 17.3633 12.8813V21.6665C17.3634 21.8738 17.5508 22.0434 17.7568 22.0435H19.1631C19.3878 22.0433 19.5566 21.8737 19.5566 21.6665V16.4438L23.5488 21.8735C23.5738 21.9112 23.6051 21.9431 23.6426 21.9683H23.6611C23.6612 21.9805 23.6676 21.9867 23.6797 21.9868C23.6797 21.9868 23.6867 21.9928 23.6992 22.0054H23.7363V22.0249H23.7734C23.7983 22.0374 23.8299 22.0434 23.8672 22.0435H25.2734C25.4983 22.0434 25.6669 21.8738 25.667 21.6665V12.8813C25.667 12.674 25.4984 12.5034 25.2734 12.5034H23.8672C23.6612 12.5036 23.4736 12.6741 23.4736 12.8813V18.0845L19.4814 12.6733C19.4814 12.6609 19.4751 12.6486 19.4629 12.6362L19.4062 12.5796H19.3877C19.3877 12.5671 19.3815 12.5601 19.3691 12.5601V12.5415H19.3311C19.319 12.5293 19.3127 12.5232 19.3125 12.5229H19.2939C19.2815 12.5229 19.2754 12.516 19.2754 12.5034H17.7568ZM27.4102 12.5034C27.204 12.5034 27.0352 12.674 27.0352 12.8813V21.6665C27.0352 21.8738 27.204 22.0434 27.4102 22.0435H33.0332C33.2393 22.0435 33.4081 21.8738 33.4082 21.6665V20.2339C33.4082 20.0265 33.2394 19.8569 33.0332 19.8569H29.21V18.3667H33.0332C33.2394 18.3667 33.4082 18.1971 33.4082 17.9897V16.5571C33.4082 16.3498 33.2394 16.1802 33.0332 16.1802H29.21V14.6909H33.0332C33.2393 14.6909 33.4081 14.5212 33.4082 14.314V12.8813C33.4082 12.674 33.2394 12.5034 33.0332 12.5034H27.4102Z" fill="white"/>
</g>
<defs>
<clipPath id="clip0_2002_1305">
<rect width="40" height="40" fill="white"/>
</clipPath>
</defs>
</svg>
