<svg width="43" height="43" viewBox="0 0 43 43" fill="none" xmlns="http://www.w3.org/2000/svg">
<rect width="43" height="43" rx="21.5" fill="#DF637A"/>
<path d="M21.4998 10.4165C16.8332 10.4165 12.1665 10.9998 12.1665 15.0832V26.1665C12.1665 28.4182 13.9982 30.2498 16.2498 30.2498L14.4998 31.9998V32.5832H28.4998V31.9998L26.7498 30.2498C29.0015 30.2498 30.8332 28.4182 30.8332 26.1665V15.0832C30.8332 10.9998 26.6565 10.4165 21.4998 10.4165ZM28.1032 13.9165H15.0015C15.7132 13.3098 17.4048 12.7498 21.4998 12.7498C25.8282 12.7498 27.4732 13.2865 28.1032 13.9165ZM20.3332 16.2498V19.7498H14.4998V16.2498H20.3332ZM22.6665 16.2498H28.4998V19.7498H22.6665V16.2498ZM26.7498 27.9165H16.2498C15.2815 27.9165 14.4998 27.1348 14.4998 26.1665V22.0832H28.4998V26.1665C28.4998 27.1348 27.7182 27.9165 26.7498 27.9165Z" fill="white"/>
<path d="M17.4165 26.7498C18.383 26.7498 19.1665 25.9663 19.1665 24.9998C19.1665 24.0333 18.383 23.2498 17.4165 23.2498C16.45 23.2498 15.6665 24.0333 15.6665 24.9998C15.6665 25.9663 16.45 26.7498 17.4165 26.7498Z" fill="white"/>
<path d="M25.5832 26.7498C26.5497 26.7498 27.3332 25.9663 27.3332 24.9998C27.3332 24.0333 26.5497 23.2498 25.5832 23.2498C24.6167 23.2498 23.8332 24.0333 23.8332 24.9998C23.8332 25.9663 24.6167 26.7498 25.5832 26.7498Z" fill="white"/>
</svg>
