<svg width="1280" height="811" viewBox="0 0 1280 811" fill="none" xmlns="http://www.w3.org/2000/svg">
<mask id="mask0_2002_1597" style="mask-type:alpha" maskUnits="userSpaceOnUse" x="0" y="0" width="1280" height="811">
<rect width="1280" height="811" fill="#D9D9D9"/>
</mask>
<g mask="url(#mask0_2002_1597)">
<path d="M1156 965C1102.32 965 1055.7 934.791 1032.21 890.446C1026.34 879.36 1010.92 875.139 999.876 881.088C984.583 889.326 967.088 894 948.5 894C923.773 894 900.978 885.728 882.731 871.8C870.931 862.793 849.091 866.226 841.579 879.029C816.313 922.089 769.533 951 716 951C675.958 951 639.695 934.825 613.386 908.653C604.324 899.638 587.965 900.485 579.804 910.323C554.125 941.282 515.366 961 472 961C428.163 961 389.033 940.851 363.364 909.31C355.789 900.003 340.986 898.638 331.734 906.28C309.256 924.846 280.431 936 249 936C229.52 936 211.041 931.714 194.454 924.035C188.528 921.292 181.583 921.586 175.983 924.946C151.584 939.584 123.025 948 92.5 948C2.75378 948 -70 875.246 -70 785.5C-70 756.53 -62.4175 729.331 -49.1306 705.778C-44.2622 697.149 -46.5714 685.978 -53.8566 679.262C-72.39 662.177 -84 637.694 -84 610.5C-84 558.861 -42.1387 517 9.5 517C61.1387 517 103 558.861 103 610.5C103 617.416 108.041 623.59 114.892 624.535C151.632 629.598 184.451 646.941 209.073 672.291C213.611 676.963 220.226 679.029 226.642 677.917C233.906 676.657 241.376 676 249 676C286.717 676 320.682 692.063 344.428 717.721C352.578 726.527 367.428 727.153 376.173 718.938C401.219 695.412 434.926 681 472 681C508.973 681 542.598 695.333 567.623 718.745C576.959 727.478 593.296 726.248 601.151 716.163C627.775 681.984 669.319 660 716 660C760.588 660 800.49 680.056 827.18 711.639C836.757 722.972 858.845 722.611 868.935 711.733C888.75 690.37 917.064 677 948.5 677C981.768 677 1011.54 691.973 1031.44 715.547C1039.52 725.123 1055.39 726.855 1064.9 718.696C1089.38 697.691 1121.21 685 1156 685C1158.74 685 1161.46 685.079 1164.16 685.234C1173.3 685.761 1181.9 679.992 1184.51 671.209C1209.82 586.083 1288.66 524 1382 524C1495.77 524 1588 616.229 1588 730C1588 843.771 1495.77 936 1382 936C1347.26 936 1314.54 927.401 1285.83 912.217C1277.73 907.932 1267.59 910.044 1261.57 916.953C1235.9 946.394 1198.13 965 1156 965Z" fill="#2A0F09"/>
<g filter="url(#filter0_d_2002_1597)">
<path d="M91.4721 455.812C87.1561 470.085 98.5363 475.523 107.611 472.921C125.252 467.862 118.173 452.94 111.739 449.285C111.208 448.984 110.95 448.304 111.192 447.743C113.14 443.228 117.872 428.498 108.588 427.564C99.6697 426.666 101.404 439.255 102.87 445.556C103.071 446.423 101.973 447.663 101.102 447.847C100.308 448.014 99.4482 448.305 98.6789 448.673C97.9421 449.026 96.8813 448.598 96.7131 447.799C95.3788 441.457 90.7654 430.987 84.0272 435.599C76.845 440.515 87.8009 451.191 91.2546 454.822C91.5037 455.084 91.5768 455.466 91.4721 455.812Z" fill="#2A0F09"/>
<path d="M91.4721 455.812C87.1561 470.085 98.5363 475.523 107.611 472.921C125.252 467.862 118.173 452.94 111.739 449.285C111.208 448.984 110.95 448.304 111.192 447.743C113.14 443.228 117.872 428.498 108.588 427.564C99.6697 426.666 101.404 439.255 102.87 445.556C103.071 446.423 101.973 447.663 101.102 447.847C100.308 448.014 99.4482 448.305 98.6789 448.673C97.9421 449.026 96.8813 448.598 96.7131 447.799C95.3788 441.457 90.7654 430.987 84.0272 435.599C76.845 440.515 87.8009 451.191 91.2546 454.822C91.5037 455.084 91.5768 455.466 91.4721 455.812Z" stroke="white" stroke-width="2"/>
</g>
<g filter="url(#filter1_d_2002_1597)">
<path d="M181.399 432.356C181.711 432.827 182.337 433.007 182.851 432.772C193.698 427.823 202.348 446.396 176.466 452.401C176.462 452.402 176.459 452.405 176.458 452.409C176.456 452.417 176.445 452.42 176.44 452.414C176.439 452.413 176.439 452.413 176.439 452.413C176.436 452.41 176.432 452.409 176.428 452.41C176.428 452.41 176.428 452.41 176.428 452.41C176.42 452.412 176.412 452.405 176.415 452.396C176.416 452.393 176.415 452.388 176.412 452.385C157.646 433.578 174.823 422.411 181.399 432.356Z" fill="white"/>
<path d="M176.412 452.385L175.704 453.092L176.412 452.385ZM176.428 452.41L176.193 451.438L176.428 452.41ZM176.439 452.413L177.153 451.713L176.439 452.413ZM176.428 452.41L176.194 451.438L176.428 452.41ZM176.44 452.414L177.154 451.713L176.44 452.414ZM176.466 452.401L176.24 451.427L176.466 452.401ZM181.399 432.356L180.565 432.907L181.399 432.356ZM182.851 432.772L183.266 433.682C188.07 431.49 192.193 434.485 192.434 438.538C192.672 442.558 189.028 448.46 176.24 451.427L176.466 452.401L176.692 453.375C189.786 450.337 194.758 443.95 194.43 438.42C194.104 432.922 188.479 429.105 182.436 431.863L182.851 432.772ZM176.44 452.414L177.154 451.713C177.153 451.713 177.153 451.713 177.153 451.713L176.439 452.413L175.725 453.114C175.725 453.114 175.725 453.114 175.725 453.114L176.44 452.414ZM176.428 452.41L176.194 451.438C176.194 451.438 176.194 451.438 176.193 451.438L176.428 452.41L176.662 453.382C176.663 453.382 176.663 453.382 176.663 453.382L176.428 452.41ZM176.412 452.385L177.12 451.679C167.847 442.387 167.885 435.451 170.217 432.168C172.569 428.858 177.653 428.503 180.565 432.907L181.399 432.356L182.233 431.804C178.57 426.264 171.777 426.52 168.587 431.01C165.378 435.526 166.21 443.577 175.704 453.092L176.412 452.385ZM176.415 452.396L177.376 452.672C177.484 452.296 177.362 451.921 177.12 451.679L176.412 452.385L175.704 453.092C175.468 452.855 175.348 452.489 175.454 452.121L176.415 452.396ZM176.428 452.41L176.193 451.438C176.931 451.26 177.585 451.945 177.376 452.672L176.415 452.396L175.454 452.121C175.24 452.865 175.908 453.564 176.662 453.382L176.428 452.41ZM176.439 452.413L177.153 451.713C176.904 451.459 176.54 451.355 176.194 451.438L176.428 452.41L176.663 453.382C176.325 453.464 175.969 453.362 175.725 453.114L176.439 452.413ZM176.458 452.409L175.497 452.133C175.705 451.406 176.622 451.171 177.154 451.713L176.44 452.414L175.725 453.114C176.269 453.668 177.206 453.428 177.419 452.685L176.458 452.409ZM176.466 452.401L176.24 451.427C175.907 451.504 175.604 451.757 175.497 452.133L176.458 452.409L177.419 452.685C177.314 453.053 177.018 453.3 176.692 453.375L176.466 452.401ZM182.851 432.772L182.436 431.863C182.408 431.875 182.369 431.88 182.325 431.868C182.28 431.855 182.25 431.83 182.233 431.804L181.399 432.356L180.565 432.907C181.148 433.79 182.304 434.121 183.266 433.682L182.851 432.772Z" fill="#2A0F09"/>
</g>
<g filter="url(#filter2_d_2002_1597)">
<path d="M188.281 593.773C188.795 594.007 189.421 593.828 189.733 593.356C196.308 583.411 213.486 594.579 194.72 613.386C194.717 613.389 194.716 613.393 194.717 613.397C194.719 613.405 194.712 613.413 194.704 613.411C194.704 613.411 194.703 613.41 194.703 613.41C194.699 613.41 194.695 613.411 194.693 613.413C194.692 613.414 194.692 613.414 194.692 613.414C194.686 613.42 194.676 613.417 194.674 613.409C194.673 613.405 194.669 613.402 194.665 613.401C168.784 607.397 177.434 588.823 188.281 593.773Z" fill="#ED758B"/>
<path d="M194.674 613.409L195.635 613.134L194.674 613.409ZM194.665 613.401L194.439 614.376L194.665 613.401ZM194.692 613.414L195.406 614.114L194.692 613.414ZM194.703 613.41L194.469 614.383L194.703 613.41ZM194.693 613.413L193.979 612.713L194.693 613.413ZM194.717 613.397L195.678 613.121L194.717 613.397ZM194.704 613.411L194.938 612.438L194.704 613.411ZM194.72 613.386L194.012 612.679L194.72 613.386ZM189.733 593.356L190.567 593.908L189.733 593.356ZM188.281 593.773L187.865 594.683L188.281 593.773ZM189.733 593.356L190.567 593.908C193.479 589.504 198.563 589.858 200.914 593.168C203.247 596.451 203.284 603.387 194.012 612.679L194.72 613.386L195.428 614.092C204.922 604.578 205.754 596.526 202.545 592.01C199.355 587.52 192.562 587.264 188.899 592.805L189.733 593.356ZM194.704 613.411L194.938 612.438C194.938 612.438 194.938 612.438 194.937 612.438L194.703 613.41L194.469 614.383C194.469 614.383 194.469 614.383 194.469 614.383L194.704 613.411ZM194.693 613.413L193.979 612.713C193.979 612.713 193.978 612.714 193.978 612.714L194.692 613.414L195.406 614.114C195.406 614.114 195.406 614.114 195.406 614.114L194.693 613.413ZM194.665 613.401L194.891 612.427C182.104 609.46 178.46 603.558 178.698 599.539C178.939 595.486 183.062 592.491 187.865 594.683L188.281 593.773L188.696 592.863C182.653 590.105 177.028 593.923 176.702 599.42C176.374 604.951 181.346 611.338 194.439 614.376L194.665 613.401ZM194.674 613.409L195.635 613.134C195.527 612.758 195.225 612.505 194.891 612.427L194.665 613.401L194.439 614.376C194.114 614.3 193.818 614.053 193.712 613.685L194.674 613.409ZM194.692 613.414L193.978 612.714C194.509 612.172 195.426 612.406 195.635 613.134L194.674 613.409L193.712 613.685C193.926 614.429 194.863 614.668 195.406 614.114L194.692 613.414ZM194.703 613.41L194.937 612.438C194.592 612.355 194.228 612.459 193.979 612.713L194.693 613.413L195.406 614.114C195.163 614.362 194.807 614.464 194.469 614.383L194.703 613.41ZM194.717 613.397L193.756 613.672C193.547 612.945 194.2 612.26 194.938 612.438L194.704 613.411L194.469 614.383C195.224 614.565 195.891 613.865 195.678 613.121L194.717 613.397ZM194.72 613.386L194.012 612.679C193.77 612.922 193.648 613.297 193.756 613.672L194.717 613.397L195.678 613.121C195.784 613.489 195.664 613.855 195.428 614.092L194.72 613.386ZM189.733 593.356L188.899 592.805C188.882 592.83 188.851 592.855 188.807 592.868C188.763 592.881 188.723 592.876 188.696 592.863L188.281 593.773L187.865 594.683C188.827 595.122 189.984 594.79 190.567 593.908L189.733 593.356Z" fill="white"/>
</g>
<g filter="url(#filter3_d_2002_1597)">
<path d="M1009.28 646.773C1009.79 647.007 1010.42 646.828 1010.73 646.356C1017.31 636.411 1034.49 647.579 1015.72 666.386C1015.72 666.389 1015.72 666.393 1015.72 666.397C1015.72 666.405 1015.71 666.413 1015.7 666.411C1015.7 666.411 1015.7 666.41 1015.7 666.41C1015.7 666.41 1015.7 666.411 1015.69 666.413C1015.69 666.414 1015.69 666.414 1015.69 666.414C1015.69 666.42 1015.68 666.417 1015.67 666.409C1015.67 666.405 1015.67 666.402 1015.67 666.401C989.784 660.397 998.434 641.823 1009.28 646.773Z" fill="white"/>
<path d="M1015.67 666.401L1015.44 667.376L1015.67 666.401ZM1015.69 666.414L1014.98 665.714L1015.69 666.414ZM1015.7 666.41L1015.47 667.383L1015.7 666.41ZM1015.69 666.413L1016.41 667.114L1015.69 666.413ZM1015.7 666.411L1015.94 665.438L1015.7 666.411ZM1015.72 666.386L1015.01 665.679L1015.72 666.386ZM1010.73 646.356L1009.9 645.805L1010.73 646.356ZM1010.73 646.356L1011.57 646.908C1014.48 642.504 1019.56 642.858 1021.91 646.168C1024.25 649.451 1024.28 656.387 1015.01 665.679L1015.72 666.386L1016.43 667.092C1025.92 657.578 1026.75 649.526 1023.54 645.01C1020.35 640.52 1013.56 640.264 1009.9 645.805L1010.73 646.356ZM1015.7 666.411L1015.94 665.438C1015.94 665.438 1015.94 665.438 1015.94 665.438L1015.7 666.41L1015.47 667.383C1015.47 667.383 1015.47 667.383 1015.47 667.383L1015.7 666.411ZM1015.69 666.413L1014.98 665.713C1014.98 665.713 1014.98 665.714 1014.98 665.714L1015.69 666.414L1016.41 667.114C1016.41 667.114 1016.41 667.114 1016.41 667.114L1015.69 666.413ZM1015.67 666.401L1015.89 665.427C1003.1 662.46 999.46 656.558 999.698 652.539C999.939 648.486 1004.06 645.491 1008.87 647.683L1009.28 646.773L1009.7 645.863C1003.65 643.105 998.028 646.923 997.702 652.42C997.374 657.951 1002.35 664.338 1015.44 667.376L1015.67 666.401ZM1015.67 666.409L1016.63 666.134C1016.53 665.758 1016.22 665.505 1015.89 665.427L1015.67 666.401L1015.44 667.376C1015.11 667.3 1014.82 667.053 1014.71 666.685L1015.67 666.409ZM1015.69 666.414L1014.98 665.714C1015.51 665.172 1016.43 665.406 1016.63 666.134L1015.67 666.409L1014.71 666.685C1014.93 667.429 1015.86 667.668 1016.41 667.114L1015.69 666.414ZM1015.7 666.41L1015.94 665.438C1015.59 665.355 1015.23 665.459 1014.98 665.713L1015.69 666.413L1016.41 667.114C1016.16 667.362 1015.81 667.464 1015.47 667.383L1015.7 666.41ZM1015.72 666.397L1014.76 666.672C1014.55 665.945 1015.2 665.26 1015.94 665.438L1015.7 666.411L1015.47 667.383C1016.22 667.565 1016.89 666.865 1016.68 666.121L1015.72 666.397ZM1015.72 666.386L1015.01 665.679C1014.77 665.922 1014.65 666.297 1014.76 666.672L1015.72 666.397L1016.68 666.121C1016.78 666.489 1016.66 666.855 1016.43 667.092L1015.72 666.386ZM1010.73 646.356L1009.9 645.805C1009.88 645.83 1009.85 645.855 1009.81 645.868C1009.76 645.881 1009.72 645.876 1009.7 645.863L1009.28 646.773L1008.87 647.683C1009.83 648.122 1010.98 647.79 1011.57 646.908L1010.73 646.356Z" fill="#2A0F09"/>
</g>
<g filter="url(#filter4_d_2002_1597)">
<path d="M1112.9 219.567C1101.67 229.385 1108.44 240.027 1117.52 242.629C1135.16 247.687 1137.06 231.281 1133.54 224.772C1133.25 224.235 1133.39 223.522 1133.9 223.175C1137.94 220.378 1149.76 210.394 1142.38 204.682C1135.29 199.194 1130.09 210.789 1128 216.909C1127.71 217.752 1126.12 218.221 1125.28 217.916C1124.52 217.637 1123.64 217.428 1122.79 217.332C1121.98 217.241 1121.31 216.316 1121.59 215.549C1123.82 209.464 1125.45 198.14 1117.29 198.48C1108.6 198.843 1112.23 213.703 1113.24 218.613C1113.31 218.967 1113.17 219.329 1112.9 219.567Z" fill="white"/>
<path d="M1112.9 219.567C1101.67 229.385 1108.44 240.027 1117.52 242.629C1135.16 247.687 1137.06 231.281 1133.54 224.772C1133.25 224.235 1133.39 223.522 1133.9 223.175C1137.94 220.378 1149.76 210.394 1142.38 204.682C1135.29 199.194 1130.09 210.789 1128 216.909C1127.71 217.752 1126.12 218.221 1125.28 217.916C1124.52 217.637 1123.64 217.428 1122.79 217.332C1121.98 217.241 1121.31 216.316 1121.59 215.549C1123.82 209.464 1125.45 198.14 1117.29 198.48C1108.6 198.843 1112.23 213.703 1113.24 218.613C1113.31 218.967 1113.17 219.329 1112.9 219.567Z" stroke="#2A0F09" stroke-width="2"/>
</g>
</g>
<defs>
<filter id="filter0_d_2002_1597" x="76.6357" y="426.519" width="47.1006" height="62.0303" filterUnits="userSpaceOnUse" color-interpolation-filters="sRGB">
<feFlood flood-opacity="0" result="BackgroundImageFix"/>
<feColorMatrix in="SourceAlpha" type="matrix" values="0 0 0 0 0 0 0 0 0 0 0 0 0 0 0 0 0 0 127 0" result="hardAlpha"/>
<feOffset dy="10"/>
<feGaussianBlur stdDeviation="2"/>
<feComposite in2="hardAlpha" operator="out"/>
<feColorMatrix type="matrix" values="0 0 0 0 0 0 0 0 0 0 0 0 0 0 0 0 0 0 0.25 0"/>
<feBlend mode="normal" in2="BackgroundImageFix" result="effect1_dropShadow_2002_1597"/>
<feBlend mode="normal" in="SourceGraphic" in2="effect1_dropShadow_2002_1597" result="shape"/>
</filter>
<filter id="filter1_d_2002_1597" x="162.896" y="427.643" width="35.5493" height="39.7754" filterUnits="userSpaceOnUse" color-interpolation-filters="sRGB">
<feFlood flood-opacity="0" result="BackgroundImageFix"/>
<feColorMatrix in="SourceAlpha" type="matrix" values="0 0 0 0 0 0 0 0 0 0 0 0 0 0 0 0 0 0 127 0" result="hardAlpha"/>
<feOffset dy="10"/>
<feGaussianBlur stdDeviation="2"/>
<feComposite in2="hardAlpha" operator="out"/>
<feColorMatrix type="matrix" values="0 0 0 0 0 0 0 0 0 0 0 0 0 0 0 0 0 0 0.25 0"/>
<feBlend mode="normal" in2="BackgroundImageFix" result="effect1_dropShadow_2002_1597"/>
<feBlend mode="normal" in="SourceGraphic" in2="effect1_dropShadow_2002_1597" result="shape"/>
</filter>
<filter id="filter2_d_2002_1597" x="172.687" y="588.644" width="35.5483" height="39.7744" filterUnits="userSpaceOnUse" color-interpolation-filters="sRGB">
<feFlood flood-opacity="0" result="BackgroundImageFix"/>
<feColorMatrix in="SourceAlpha" type="matrix" values="0 0 0 0 0 0 0 0 0 0 0 0 0 0 0 0 0 0 127 0" result="hardAlpha"/>
<feOffset dy="10"/>
<feGaussianBlur stdDeviation="2"/>
<feComposite in2="hardAlpha" operator="out"/>
<feColorMatrix type="matrix" values="0 0 0 0 0 0 0 0 0 0 0 0 0 0 0 0 0 0 0.25 0"/>
<feBlend mode="normal" in2="BackgroundImageFix" result="effect1_dropShadow_2002_1597"/>
<feBlend mode="normal" in="SourceGraphic" in2="effect1_dropShadow_2002_1597" result="shape"/>
</filter>
<filter id="filter3_d_2002_1597" x="993.687" y="641.644" width="35.5483" height="39.7744" filterUnits="userSpaceOnUse" color-interpolation-filters="sRGB">
<feFlood flood-opacity="0" result="BackgroundImageFix"/>
<feColorMatrix in="SourceAlpha" type="matrix" values="0 0 0 0 0 0 0 0 0 0 0 0 0 0 0 0 0 0 127 0" result="hardAlpha"/>
<feOffset dy="10"/>
<feGaussianBlur stdDeviation="2"/>
<feComposite in2="hardAlpha" operator="out"/>
<feColorMatrix type="matrix" values="0 0 0 0 0 0 0 0 0 0 0 0 0 0 0 0 0 0 0.25 0"/>
<feBlend mode="normal" in2="BackgroundImageFix" result="effect1_dropShadow_2002_1597"/>
<feBlend mode="normal" in="SourceGraphic" in2="effect1_dropShadow_2002_1597" result="shape"/>
</filter>
<filter id="filter4_d_2002_1597" x="1102.03" y="197.473" width="47.7217" height="61.1094" filterUnits="userSpaceOnUse" color-interpolation-filters="sRGB">
<feFlood flood-opacity="0" result="BackgroundImageFix"/>
<feColorMatrix in="SourceAlpha" type="matrix" values="0 0 0 0 0 0 0 0 0 0 0 0 0 0 0 0 0 0 127 0" result="hardAlpha"/>
<feOffset dy="10"/>
<feGaussianBlur stdDeviation="2"/>
<feComposite in2="hardAlpha" operator="out"/>
<feColorMatrix type="matrix" values="0 0 0 0 0 0 0 0 0 0 0 0 0 0 0 0 0 0 0.25 0"/>
<feBlend mode="normal" in2="BackgroundImageFix" result="effect1_dropShadow_2002_1597"/>
<feBlend mode="normal" in="SourceGraphic" in2="effect1_dropShadow_2002_1597" result="shape"/>
</filter>
</defs>
</svg>
