<svg width="390" height="665" viewBox="0 0 390 665" fill="none" xmlns="http://www.w3.org/2000/svg">
<mask id="mask0_2002_1111" style="mask-type:alpha" maskUnits="userSpaceOnUse" x="0" y="0" width="392" height="665">
<rect width="392" height="665" fill="#D9D9D9"/>
</mask>
<g mask="url(#mask0_2002_1111)">
<path d="M370.595 694.189C351.095 694.189 333.583 685.68 321.568 672.173C318.803 669.064 313.701 668.996 310.658 671.834C302.835 679.129 292.338 683.594 280.797 683.594C270.753 683.594 261.499 680.212 254.111 674.525C251.188 672.275 246.876 672.476 244.277 675.094C234.039 685.405 219.851 691.789 204.173 691.789C185.34 691.789 168.66 682.577 158.391 668.414C155.817 664.864 150.335 664.274 147.031 667.158C137.809 675.207 125.745 680.083 112.542 680.083C102.667 680.083 93.4295 677.355 85.5411 672.612C82.7906 670.958 79.1949 671.357 76.933 673.634C65.051 685.594 48.5898 693 30.3984 693C-5.82831 693 -35.1962 663.633 -35.1963 627.406C-35.1963 612.444 -30.1861 598.653 -21.7527 587.617C-19.1422 584.201 -20.1936 578.935 -23.6703 576.406C-33.1019 569.545 -39.2334 558.423 -39.2334 545.867C-39.2334 525.023 -22.3356 508.125 -1.49121 508.125C19.3531 508.125 36.251 525.023 36.251 545.867C36.251 548.391 36.0028 550.857 35.5299 553.242C34.6929 557.463 37.4953 562.05 41.735 562.789C55.4902 565.185 67.7737 571.866 77.1598 581.406C79.4106 583.694 83.0042 584.111 85.7628 582.471C93.6023 577.809 102.759 575.132 112.542 575.132C128.9 575.132 143.51 582.617 153.133 594.348C155.914 597.738 161.417 598.067 164.542 594.993C174.741 584.957 188.734 578.765 204.173 578.765C222.244 578.765 238.334 587.248 248.679 600.449C250.955 603.353 255.215 604.058 258.383 602.166C264.94 598.251 272.605 596 280.797 596C288.429 596 295.604 597.953 301.852 601.386C305.503 603.392 310.44 602.071 312.362 598.375C321.846 580.135 339.648 566.913 360.741 563.736C365.039 563.089 367.959 558.495 367.024 554.251C366.354 551.207 366 548.043 366 544.797C366 520.609 385.609 501 409.797 501C433.985 501 453.594 520.609 453.594 544.797C453.594 561.716 444 576.392 429.956 583.686C426.099 585.69 424.442 590.878 426.698 594.593C432.721 604.508 436.188 616.146 436.188 628.595C436.188 664.821 406.821 694.189 370.595 694.189Z" fill="#2A0F09"/>
</g>
<g filter="url(#filter0_d_2002_1111)">
<path d="M38.4721 426.812C34.1561 441.085 45.5363 446.523 54.611 443.921C72.2522 438.862 65.1728 423.94 58.7391 420.285C58.2077 419.984 57.9501 419.304 58.1922 418.743C60.1395 414.228 64.8717 399.498 55.5882 398.564C46.6697 397.666 48.4037 410.255 49.8697 416.556C50.0715 417.423 48.9729 418.663 48.1019 418.847C47.308 419.014 46.4482 419.305 45.6789 419.673C44.9421 420.026 43.8813 419.598 43.7131 418.799C42.3788 412.457 37.7654 401.987 31.0272 406.599C23.845 411.515 34.8009 422.191 38.2546 425.822C38.5037 426.084 38.5768 426.466 38.4721 426.812Z" fill="#2A0F09"/>
<path d="M38.4721 426.812C34.1561 441.085 45.5363 446.523 54.611 443.921C72.2522 438.862 65.1728 423.94 58.7391 420.285C58.2077 419.984 57.9501 419.304 58.1922 418.743C60.1395 414.228 64.8717 399.498 55.5882 398.564C46.6697 397.666 48.4037 410.255 49.8697 416.556C50.0715 417.423 48.9729 418.663 48.1019 418.847C47.308 419.014 46.4482 419.305 45.6789 419.673C44.9421 420.026 43.8813 419.598 43.7131 418.799C42.3788 412.457 37.7654 401.987 31.0272 406.599C23.845 411.515 34.8009 422.191 38.2546 425.822C38.5037 426.084 38.5768 426.466 38.4721 426.812Z" stroke="white" stroke-width="2"/>
</g>
<g filter="url(#filter1_d_2002_1111)">
<path d="M101.399 353.356C101.71 353.827 102.337 354.007 102.851 353.772C113.698 348.823 122.348 367.396 96.4663 373.401C96.4624 373.402 96.459 373.405 96.4579 373.409C96.4556 373.417 96.4454 373.42 96.4395 373.414C96.4394 373.413 96.4392 373.413 96.4391 373.413C96.4363 373.41 96.4323 373.409 96.4284 373.41C96.4282 373.41 96.4281 373.41 96.4279 373.41C96.4196 373.412 96.4124 373.405 96.4147 373.396C96.4158 373.393 96.4146 373.388 96.4117 373.385C77.6455 354.578 94.8234 343.411 101.399 353.356Z" fill="white"/>
<path d="M96.4147 373.396L97.376 373.672L96.4147 373.396ZM96.4117 373.385L95.7039 374.092L96.4117 373.385ZM96.4279 373.41L96.6624 374.382L96.4279 373.41ZM96.4391 373.413L95.7254 374.114L96.4391 373.413ZM96.4284 373.41L96.6625 374.382L96.4284 373.41ZM96.4579 373.409L97.4192 373.684L96.4579 373.409ZM96.4395 373.414L97.1536 372.713L96.4395 373.414ZM96.4663 373.401L96.2403 372.427L96.4663 373.401ZM101.399 353.356L100.565 353.907L101.399 353.356ZM102.851 353.772L103.266 354.682C108.07 352.49 112.193 355.485 112.433 359.538C112.672 363.558 109.028 369.46 96.2403 372.427L96.4663 373.401L96.6923 374.375C109.786 371.337 114.758 364.95 114.43 359.42C114.104 353.922 108.479 350.105 102.436 352.863L102.851 353.772ZM96.4395 373.414L97.1536 372.713C97.1533 372.713 97.153 372.713 97.1528 372.713L96.4391 373.413L95.7254 374.114C95.7254 374.114 95.7254 374.114 95.7254 374.114L96.4395 373.414ZM96.4284 373.41L96.1944 372.438C96.194 372.438 96.1937 372.438 96.1933 372.438L96.4279 373.41L96.6624 374.382C96.6625 374.382 96.6625 374.382 96.6625 374.382L96.4284 373.41ZM96.4117 373.385L97.1196 372.679C87.8472 363.386 87.885 356.451 90.2173 353.168C92.5689 349.858 97.6527 349.503 100.565 353.907L101.399 353.356L102.233 352.804C98.5695 347.264 91.7766 347.52 88.5869 352.009C85.3781 356.526 86.21 364.577 95.7039 374.092L96.4117 373.385ZM96.4147 373.396L97.376 373.672C97.4838 373.296 97.3615 372.921 97.1196 372.679L96.4117 373.385L95.7039 374.092C95.4677 373.855 95.3479 373.489 95.4535 373.121L96.4147 373.396ZM96.4279 373.41L96.1933 372.438C96.9312 372.26 97.5846 372.945 97.376 373.672L96.4147 373.396L95.4535 373.121C95.2402 373.865 95.9081 374.564 96.6624 374.382L96.4279 373.41ZM96.4391 373.413L97.1528 372.713C96.9038 372.459 96.54 372.355 96.1944 372.438L96.4284 373.41L96.6625 374.382C96.3246 374.464 95.9688 374.362 95.7254 374.114L96.4391 373.413ZM96.4579 373.409L95.4967 373.133C95.7053 372.406 96.6221 372.171 97.1536 372.713L96.4395 373.414L95.7254 374.114C96.2687 374.668 97.2059 374.428 97.4192 373.684L96.4579 373.409ZM96.4663 373.401L96.2403 372.427C95.9066 372.504 95.6044 372.757 95.4967 373.133L96.4579 373.409L97.4192 373.684C97.3136 374.053 97.0182 374.3 96.6923 374.375L96.4663 373.401ZM102.851 353.772L102.436 352.863C102.408 352.875 102.369 352.88 102.325 352.868C102.28 352.855 102.25 352.83 102.233 352.804L101.399 353.356L100.565 353.907C101.148 354.79 102.304 355.121 103.266 354.682L102.851 353.772Z" fill="#2A0F09"/>
</g>
<g filter="url(#filter2_d_2002_1111)">
<path d="M111.28 483.773C111.795 484.007 112.421 483.828 112.733 483.356C119.308 473.411 136.486 484.578 117.72 503.386C117.717 503.388 117.716 503.393 117.717 503.397C117.719 503.405 117.712 503.412 117.704 503.41C117.703 503.41 117.703 503.41 117.703 503.41C117.699 503.409 117.695 503.41 117.692 503.413C117.692 503.413 117.692 503.414 117.692 503.414C117.686 503.42 117.676 503.417 117.674 503.409C117.672 503.405 117.669 503.402 117.665 503.401C91.7843 497.397 100.434 478.823 111.28 483.773Z" fill="#ED758B"/>
<path d="M117.674 503.409L118.635 503.133L117.674 503.409ZM117.665 503.401L117.439 504.375L117.665 503.401ZM117.692 503.414L118.406 504.114L117.692 503.414ZM117.703 503.41L117.937 502.438L117.703 503.41ZM117.692 503.413L116.979 502.713L117.692 503.413ZM117.704 503.41L117.469 504.382L117.704 503.41ZM117.72 503.386L117.012 502.679L117.72 503.386ZM112.733 483.356L113.567 483.908L112.733 483.356ZM112.733 483.356L113.567 483.908C116.479 479.503 121.563 479.858 123.914 483.168C126.247 486.451 126.284 493.387 117.012 502.679L117.72 503.386L118.428 504.092C127.922 494.577 128.753 486.526 125.545 482.01C122.355 477.52 115.562 477.264 111.899 482.805L112.733 483.356ZM117.704 503.41L117.938 502.438C117.938 502.438 117.937 502.438 117.937 502.438L117.703 503.41L117.469 504.382C117.469 504.382 117.469 504.382 117.469 504.382L117.704 503.41ZM117.692 503.413L116.979 502.713C116.978 502.713 116.978 502.713 116.978 502.714L117.692 503.414L118.406 504.114C118.406 504.114 118.406 504.114 118.406 504.114L117.692 503.413ZM117.665 503.401L117.891 502.427C105.103 499.46 101.46 493.558 101.698 489.538C101.939 485.485 106.062 482.49 110.865 484.682L111.28 483.773L111.696 482.863C105.653 480.105 100.028 483.922 99.7019 489.42C99.3739 494.951 104.346 501.338 117.439 504.375L117.665 503.401ZM117.674 503.409L118.635 503.133C118.527 502.757 118.225 502.505 117.891 502.427L117.665 503.401L117.439 504.375C117.113 504.3 116.818 504.053 116.712 503.685L117.674 503.409ZM117.692 503.414L116.978 502.714C117.509 502.172 118.426 502.406 118.635 503.133L117.674 503.409L116.712 503.685C116.926 504.429 117.863 504.668 118.406 504.114L117.692 503.414ZM117.703 503.41L117.937 502.438C117.592 502.355 117.228 502.459 116.979 502.713L117.692 503.413L118.406 504.114C118.163 504.362 117.807 504.464 117.469 504.382L117.703 503.41ZM117.717 503.397L116.756 503.672C116.547 502.945 117.2 502.26 117.938 502.438L117.704 503.41L117.469 504.382C118.223 504.565 118.891 503.865 118.678 503.121L117.717 503.397ZM117.72 503.386L117.012 502.679C116.77 502.922 116.648 503.296 116.756 503.672L117.717 503.397L118.678 503.121C118.784 503.489 118.664 503.855 118.428 504.092L117.72 503.386ZM112.733 483.356L111.899 482.805C111.882 482.83 111.851 482.855 111.807 482.868C111.762 482.881 111.723 482.876 111.696 482.863L111.28 483.773L110.865 484.682C111.827 485.121 112.984 484.79 113.567 483.908L112.733 483.356Z" fill="white"/>
</g>
<g filter="url(#filter3_d_2002_1111)">
<path d="M336.399 146.356C336.711 146.827 337.337 147.007 337.851 146.772C348.697 141.823 357.347 160.396 331.466 166.401C331.462 166.402 331.459 166.405 331.458 166.409C331.456 166.417 331.445 166.419 331.44 166.413C331.439 166.413 331.439 166.413 331.439 166.413C331.436 166.41 331.432 166.409 331.428 166.41C331.428 166.41 331.428 166.41 331.428 166.41C331.42 166.412 331.412 166.404 331.415 166.396C331.416 166.392 331.415 166.388 331.412 166.385C312.646 147.578 329.823 136.411 336.399 146.356Z" fill="#2A0F09"/>
<path d="M331.412 166.385L330.704 167.092L331.412 166.385ZM331.428 166.41L331.193 165.438L331.428 166.41ZM331.439 166.413L332.153 165.712L331.439 166.413ZM331.428 166.41L331.663 167.382L331.428 166.41ZM331.44 166.413L332.154 165.713L331.44 166.413ZM331.466 166.401L331.24 165.427L331.466 166.401ZM337.851 146.772L338.266 147.682C343.07 145.49 347.193 148.485 347.433 152.538C347.672 156.558 344.028 162.46 331.24 165.427L331.466 166.401L331.692 167.375C344.786 164.337 349.758 157.95 349.43 152.42C349.104 146.922 343.479 143.105 337.436 145.862L337.851 146.772ZM331.44 166.413L332.154 165.713C332.153 165.713 332.153 165.713 332.153 165.712L331.439 166.413L330.725 167.113C330.725 167.113 330.725 167.113 330.726 167.113L331.44 166.413ZM331.428 166.41L331.194 165.438C331.194 165.438 331.194 165.438 331.193 165.438L331.428 166.41L331.662 167.382C331.663 167.382 331.663 167.382 331.663 167.382L331.428 166.41ZM331.412 166.385L332.12 165.679C322.847 156.386 322.885 149.45 325.217 146.168C327.569 142.858 332.653 142.503 335.565 146.907L336.399 146.356L337.233 145.804C333.57 140.263 326.777 140.52 323.587 145.009C320.378 149.526 321.21 157.577 330.704 167.092L331.412 166.385ZM331.415 166.396L332.376 166.672C332.484 166.296 332.362 165.921 332.12 165.679L331.412 166.385L330.704 167.092C330.468 166.855 330.348 166.489 330.454 166.121L331.415 166.396ZM331.428 166.41L331.193 165.438C331.931 165.26 332.585 165.944 332.376 166.672L331.415 166.396L330.454 166.121C330.24 166.864 330.908 167.564 331.662 167.382L331.428 166.41ZM331.439 166.413L332.153 165.712C331.904 165.459 331.54 165.354 331.194 165.438L331.428 166.41L331.663 167.382C331.325 167.463 330.969 167.361 330.725 167.113L331.439 166.413ZM331.458 166.409L330.497 166.133C330.705 165.405 331.622 165.171 332.154 165.713L331.44 166.413L330.726 167.113C331.269 167.668 332.206 167.428 332.419 166.684L331.458 166.409ZM331.466 166.401L331.24 165.427C330.907 165.504 330.604 165.757 330.497 166.133L331.458 166.409L332.419 166.684C332.314 167.052 332.018 167.299 331.692 167.375L331.466 166.401ZM337.851 146.772L337.436 145.862C337.408 145.875 337.369 145.88 337.325 145.867C337.28 145.855 337.25 145.83 337.233 145.804L336.399 146.356L335.565 146.907C336.148 147.789 337.304 148.121 338.266 147.682L337.851 146.772Z" fill="white"/>
</g>
<g filter="url(#filter4_d_2002_1111)">
<path d="M347.28 382.773C347.795 383.007 348.421 382.828 348.733 382.356C355.308 372.411 372.486 383.578 353.72 402.386C353.717 402.388 353.716 402.393 353.717 402.397C353.719 402.405 353.712 402.412 353.704 402.41C353.703 402.41 353.703 402.41 353.703 402.41C353.699 402.409 353.695 402.41 353.692 402.413C353.692 402.413 353.692 402.414 353.692 402.414C353.686 402.42 353.676 402.417 353.674 402.409C353.672 402.405 353.669 402.402 353.665 402.401C327.784 396.397 336.434 377.823 347.28 382.773Z" fill="white"/>
<path d="M353.665 402.401L353.439 403.375L353.665 402.401ZM353.692 402.414L352.978 401.714L353.692 402.414ZM353.703 402.41L353.469 403.382L353.703 402.41ZM353.692 402.413L354.406 403.114L353.692 402.413ZM353.704 402.41L353.938 401.438L353.704 402.41ZM353.72 402.386L353.012 401.679L353.72 402.386ZM347.28 382.773L346.865 383.682L347.28 382.773ZM348.733 382.356L349.567 382.908C352.479 378.503 357.563 378.858 359.914 382.168C362.247 385.451 362.284 392.387 353.012 401.679L353.72 402.386L354.428 403.092C363.922 393.577 364.753 385.526 361.545 381.01C358.355 376.52 351.562 376.264 347.899 381.805L348.733 382.356ZM353.704 402.41L353.938 401.438C353.938 401.438 353.937 401.438 353.937 401.438L353.703 402.41L353.469 403.382C353.469 403.382 353.469 403.382 353.469 403.382L353.704 402.41ZM353.692 402.413L352.979 401.713C352.978 401.713 352.978 401.713 352.978 401.714L353.692 402.414L354.406 403.114C354.406 403.114 354.406 403.114 354.406 403.114L353.692 402.413ZM353.665 402.401L353.891 401.427C341.103 398.46 337.46 392.558 337.698 388.538C337.939 384.485 342.062 381.49 346.865 383.682L347.28 382.773L347.696 381.863C341.653 379.105 336.028 382.922 335.702 388.42C335.374 393.951 340.346 400.338 353.439 403.375L353.665 402.401ZM353.674 402.409L354.635 402.133C354.527 401.757 354.225 401.505 353.891 401.427L353.665 402.401L353.439 403.375C353.113 403.3 352.818 403.053 352.712 402.685L353.674 402.409ZM353.692 402.414L352.978 401.714C353.509 401.172 354.426 401.406 354.635 402.133L353.674 402.409L352.712 402.685C352.926 403.429 353.863 403.668 354.406 403.114L353.692 402.414ZM353.703 402.41L353.937 401.438C353.592 401.355 353.228 401.459 352.979 401.713L353.692 402.413L354.406 403.114C354.163 403.362 353.807 403.464 353.469 403.382L353.703 402.41ZM353.717 402.397L352.756 402.672C352.547 401.945 353.2 401.26 353.938 401.438L353.704 402.41L353.469 403.382C354.223 403.565 354.891 402.865 354.678 402.121L353.717 402.397ZM353.72 402.386L353.012 401.679C352.77 401.922 352.648 402.296 352.756 402.672L353.717 402.397L354.678 402.121C354.784 402.489 354.664 402.855 354.428 403.092L353.72 402.386ZM348.733 382.356L347.899 381.805C347.882 381.83 347.851 381.855 347.807 381.868C347.762 381.881 347.723 381.876 347.696 381.863L347.28 382.773L346.865 383.682C347.827 384.121 348.984 383.79 349.567 382.908L348.733 382.356Z" fill="#2A0F09"/>
</g>
<g filter="url(#filter5_d_2002_1111)">
<path d="M265.896 85.5674C254.672 95.3847 261.441 106.027 270.516 108.629C288.157 113.687 290.061 97.2808 286.542 90.7724C286.251 90.2349 286.393 89.5221 286.895 89.1745C290.939 86.3775 302.758 76.3936 295.381 70.6815C288.293 65.194 283.092 76.7893 280.997 82.9094C280.708 83.7516 279.119 84.2214 278.283 83.9156C277.521 83.6369 276.638 83.4275 275.791 83.3324C274.979 83.2412 274.306 82.3162 274.587 81.5491C276.816 75.4637 278.452 64.1401 270.294 64.4805C261.598 64.8433 265.231 79.7028 266.236 84.6129C266.308 84.9671 266.168 85.3293 265.896 85.5674Z" fill="white"/>
<path d="M265.896 85.5674C254.672 95.3847 261.441 106.027 270.516 108.629C288.157 113.687 290.061 97.2808 286.542 90.7724C286.251 90.2349 286.393 89.5221 286.895 89.1745C290.939 86.3775 302.758 76.3936 295.381 70.6815C288.293 65.194 283.092 76.7893 280.997 82.9094C280.708 83.7516 279.119 84.2214 278.283 83.9156C277.521 83.6369 276.638 83.4275 275.791 83.3324C274.979 83.2412 274.306 82.3162 274.587 81.5491C276.816 75.4637 278.452 64.1401 270.294 64.4805C261.598 64.8433 265.231 79.7028 266.236 84.6129C266.308 84.9671 266.168 85.3293 265.896 85.5674Z" stroke="#2A0F09" stroke-width="2"/>
</g>
<defs>
<filter id="filter0_d_2002_1111" x="23.6357" y="397.519" width="47.1006" height="62.0303" filterUnits="userSpaceOnUse" color-interpolation-filters="sRGB">
<feFlood flood-opacity="0" result="BackgroundImageFix"/>
<feColorMatrix in="SourceAlpha" type="matrix" values="0 0 0 0 0 0 0 0 0 0 0 0 0 0 0 0 0 0 127 0" result="hardAlpha"/>
<feOffset dy="10"/>
<feGaussianBlur stdDeviation="2"/>
<feComposite in2="hardAlpha" operator="out"/>
<feColorMatrix type="matrix" values="0 0 0 0 0 0 0 0 0 0 0 0 0 0 0 0 0 0 0.25 0"/>
<feBlend mode="normal" in2="BackgroundImageFix" result="effect1_dropShadow_2002_1111"/>
<feBlend mode="normal" in="SourceGraphic" in2="effect1_dropShadow_2002_1111" result="shape"/>
</filter>
<filter id="filter1_d_2002_1111" x="82.896" y="348.643" width="35.5493" height="39.7744" filterUnits="userSpaceOnUse" color-interpolation-filters="sRGB">
<feFlood flood-opacity="0" result="BackgroundImageFix"/>
<feColorMatrix in="SourceAlpha" type="matrix" values="0 0 0 0 0 0 0 0 0 0 0 0 0 0 0 0 0 0 127 0" result="hardAlpha"/>
<feOffset dy="10"/>
<feGaussianBlur stdDeviation="2"/>
<feComposite in2="hardAlpha" operator="out"/>
<feColorMatrix type="matrix" values="0 0 0 0 0 0 0 0 0 0 0 0 0 0 0 0 0 0 0.25 0"/>
<feBlend mode="normal" in2="BackgroundImageFix" result="effect1_dropShadow_2002_1111"/>
<feBlend mode="normal" in="SourceGraphic" in2="effect1_dropShadow_2002_1111" result="shape"/>
</filter>
<filter id="filter2_d_2002_1111" x="95.6865" y="478.643" width="35.5488" height="39.7754" filterUnits="userSpaceOnUse" color-interpolation-filters="sRGB">
<feFlood flood-opacity="0" result="BackgroundImageFix"/>
<feColorMatrix in="SourceAlpha" type="matrix" values="0 0 0 0 0 0 0 0 0 0 0 0 0 0 0 0 0 0 127 0" result="hardAlpha"/>
<feOffset dy="10"/>
<feGaussianBlur stdDeviation="2"/>
<feComposite in2="hardAlpha" operator="out"/>
<feColorMatrix type="matrix" values="0 0 0 0 0 0 0 0 0 0 0 0 0 0 0 0 0 0 0.25 0"/>
<feBlend mode="normal" in2="BackgroundImageFix" result="effect1_dropShadow_2002_1111"/>
<feBlend mode="normal" in="SourceGraphic" in2="effect1_dropShadow_2002_1111" result="shape"/>
</filter>
<filter id="filter3_d_2002_1111" x="317.896" y="141.643" width="35.5488" height="39.7744" filterUnits="userSpaceOnUse" color-interpolation-filters="sRGB">
<feFlood flood-opacity="0" result="BackgroundImageFix"/>
<feColorMatrix in="SourceAlpha" type="matrix" values="0 0 0 0 0 0 0 0 0 0 0 0 0 0 0 0 0 0 127 0" result="hardAlpha"/>
<feOffset dy="10"/>
<feGaussianBlur stdDeviation="2"/>
<feComposite in2="hardAlpha" operator="out"/>
<feColorMatrix type="matrix" values="0 0 0 0 0 0 0 0 0 0 0 0 0 0 0 0 0 0 0.25 0"/>
<feBlend mode="normal" in2="BackgroundImageFix" result="effect1_dropShadow_2002_1111"/>
<feBlend mode="normal" in="SourceGraphic" in2="effect1_dropShadow_2002_1111" result="shape"/>
</filter>
<filter id="filter4_d_2002_1111" x="331.687" y="377.643" width="35.5488" height="39.7754" filterUnits="userSpaceOnUse" color-interpolation-filters="sRGB">
<feFlood flood-opacity="0" result="BackgroundImageFix"/>
<feColorMatrix in="SourceAlpha" type="matrix" values="0 0 0 0 0 0 0 0 0 0 0 0 0 0 0 0 0 0 127 0" result="hardAlpha"/>
<feOffset dy="10"/>
<feGaussianBlur stdDeviation="2"/>
<feComposite in2="hardAlpha" operator="out"/>
<feColorMatrix type="matrix" values="0 0 0 0 0 0 0 0 0 0 0 0 0 0 0 0 0 0 0.25 0"/>
<feBlend mode="normal" in2="BackgroundImageFix" result="effect1_dropShadow_2002_1111"/>
<feBlend mode="normal" in="SourceGraphic" in2="effect1_dropShadow_2002_1111" result="shape"/>
</filter>
<filter id="filter5_d_2002_1111" x="255.031" y="63.4727" width="47.7217" height="61.1094" filterUnits="userSpaceOnUse" color-interpolation-filters="sRGB">
<feFlood flood-opacity="0" result="BackgroundImageFix"/>
<feColorMatrix in="SourceAlpha" type="matrix" values="0 0 0 0 0 0 0 0 0 0 0 0 0 0 0 0 0 0 127 0" result="hardAlpha"/>
<feOffset dy="10"/>
<feGaussianBlur stdDeviation="2"/>
<feComposite in2="hardAlpha" operator="out"/>
<feColorMatrix type="matrix" values="0 0 0 0 0 0 0 0 0 0 0 0 0 0 0 0 0 0 0.25 0"/>
<feBlend mode="normal" in2="BackgroundImageFix" result="effect1_dropShadow_2002_1111"/>
<feBlend mode="normal" in="SourceGraphic" in2="effect1_dropShadow_2002_1111" result="shape"/>
</filter>
</defs>
</svg>
