<svg width="360" height="80" viewBox="0 0 360 80" fill="none" xmlns="http://www.w3.org/2000/svg">
<g clip-path="url(#clip0_4002_379)">
<mask id="mask0_4002_379" style="mask-type:alpha" maskUnits="userSpaceOnUse" x="0" y="0" width="360" height="80">
<rect width="360" height="80" fill="#D9D9D9"/>
</mask>
<g mask="url(#mask0_4002_379)">
<mask id="mask1_4002_379" style="mask-type:alpha" maskUnits="userSpaceOnUse" x="0" y="0" width="360" height="633">
<rect width="360" height="633" rx="20" fill="#D9D9D9"/>
</mask>
<g mask="url(#mask1_4002_379)">
<path d="M359.986 -46.96C387.216 -46.96 409.29 -24.8859 409.29 2.34375C409.29 12.7815 406.045 22.4604 400.511 30.4296C398.058 33.9609 399.126 39.2763 402.393 42.0719C408.472 47.2747 412.324 55.0031 412.324 63.6318C412.324 79.2992 399.623 91.9998 383.956 92C368.289 92 355.587 79.2993 355.587 63.6318C355.587 62.5103 355.652 61.4041 355.779 60.3166C356.277 56.0419 353.453 51.4071 349.252 50.4743C340.289 48.4845 332.245 44.0554 325.851 37.9192C323.536 35.6968 319.949 35.2843 317.133 36.8238C311.523 39.8907 305.087 41.6348 298.243 41.6348C286.786 41.6346 276.472 36.7491 269.267 28.9484C266.291 25.7275 260.738 25.3942 257.45 28.2947C249.965 34.8973 240.136 38.9042 229.37 38.9043C217.267 38.9043 206.346 33.8425 198.609 25.7206C196.577 23.5869 193.406 22.881 190.615 23.8254C187.303 24.9457 183.755 25.5537 180.065 25.5537C173.483 25.5537 167.352 23.6218 162.208 20.294C158.905 18.1571 154.194 18.6501 151.406 21.4258C145.453 27.3521 137.247 31.0156 128.184 31.0156C110.003 31.0155 95.2637 16.2767 95.2637 -1.9043C95.2637 -20.0852 110.003 -34.8241 128.184 -34.8242C134.766 -34.8242 140.897 -32.8924 146.041 -29.5648C149.345 -27.4281 154.055 -27.9212 156.843 -30.6966C162.796 -36.6223 171.002 -40.2851 180.065 -40.2852C185.546 -40.2852 190.714 -38.9452 195.259 -36.5756C197.874 -35.2123 201.118 -35.4268 203.454 -37.2279C210.625 -42.7591 219.613 -46.0498 229.37 -46.0498C242.687 -46.0497 254.571 -39.9205 262.359 -30.3298C265.123 -26.9254 270.655 -26.332 274.123 -29.0165C280.791 -34.1785 289.158 -37.2509 298.243 -37.251C305.157 -37.251 311.654 -35.4711 317.304 -32.3459C320.112 -30.7923 323.701 -31.1873 326.027 -33.3985C334.869 -41.8023 346.825 -46.96 359.986 -46.96ZM32.6104 -29.666C50.7914 -29.666 65.5303 -14.9271 65.5303 3.25391C65.5301 21.4348 50.7913 36.1738 32.6104 36.1738C29.684 36.1738 26.9631 37.9625 25.7957 40.646C20.7269 52.2983 9.11247 60.4463 -4.40527 60.4463C-22.5862 60.4462 -37.3251 45.7073 -37.3252 27.5264C-37.3252 9.34537 -22.5863 -5.39349 -4.40527 -5.39355C-1.47891 -5.39355 1.24201 -7.18314 2.40939 -9.86658C7.47832 -21.5185 19.0929 -29.6659 32.6104 -29.666Z" fill="#2A0F09"/>
</g>
</g>
</g>
<defs>
<clipPath id="clip0_4002_379">
<rect width="360" height="80" fill="white"/>
</clipPath>
</defs>
</svg>
