<svg width="360" height="100" viewBox="0 0 360 100" fill="none" xmlns="http://www.w3.org/2000/svg">
<g clip-path="url(#clip0_4002_379)">
<mask id="mask0_4002_379" style="mask-type:alpha" maskUnits="userSpaceOnUse" x="0" y="0" width="360" height="100">
<rect width="360" height="100" fill="#D9D9D9"/>
</mask>
<g mask="url(#mask0_4002_379)">
<mask id="mask1_4002_379" style="mask-type:alpha" maskUnits="userSpaceOnUse" x="0" y="-533" width="360" height="633">
<rect y="-533" width="360" height="633" rx="20" fill="#D9D9D9"/>
</mask>
<g mask="url(#mask1_4002_379)">
<path d="M15.0127 139C-12.217 139 -34.291 116.926 -34.291 89.6963C-34.2909 79.2585 -31.0462 69.5796 -25.5115 61.6105C-23.059 58.0792 -24.1273 52.7638 -27.3937 49.9681C-33.4726 44.7653 -37.3252 37.0369 -37.3252 28.4082C-37.3251 12.7409 -24.6243 0.0402659 -8.95703 0.0400391C6.71047 0.0400391 19.412 12.7407 19.4121 28.4082C19.4121 29.5297 19.3469 30.636 19.2201 31.7235C18.7218 35.9981 21.5459 40.633 25.7472 41.5657C34.7098 43.5556 42.7542 47.9846 49.1479 54.1209C51.4634 56.3432 55.0497 56.7558 57.8658 55.2162C63.4756 52.1493 69.9119 50.4053 76.7559 50.4053C88.2126 50.4054 98.5271 55.2909 105.733 63.0917C108.708 66.3126 114.261 66.6458 117.549 63.7453C125.034 57.1428 134.863 53.1359 145.629 53.1357C157.732 53.1357 168.653 58.1975 176.39 66.3194C178.422 68.4531 181.593 69.159 184.384 68.2147C187.696 67.0943 191.244 66.4863 194.934 66.4863C201.516 66.4864 207.647 68.4182 212.791 71.746C216.094 73.883 220.805 73.3899 223.593 70.6142C229.546 64.6879 237.752 61.0244 246.815 61.0244C264.996 61.0245 279.735 75.7634 279.735 93.9443C279.735 112.125 264.996 126.864 246.815 126.864C240.233 126.864 234.102 124.932 228.958 121.605C225.655 119.468 220.944 119.961 218.156 122.737C212.203 128.662 203.997 132.325 194.934 132.325C189.453 132.325 184.285 130.985 179.74 128.616C177.125 127.252 173.881 127.467 171.545 129.268C164.374 134.799 155.386 138.09 145.629 138.09C132.312 138.09 120.428 131.961 112.64 122.37C109.876 118.965 104.344 118.372 100.876 121.057C94.208 126.218 85.8411 129.291 76.7559 129.291C69.8424 129.291 63.345 127.511 57.6954 124.386C54.8868 122.832 51.2984 123.227 48.972 125.439C40.1303 133.842 28.1742 139 15.0127 139ZM342.389 121.706C324.208 121.706 309.469 106.967 309.469 88.7861C309.469 70.6052 324.208 55.8662 342.389 55.8662C345.315 55.8662 348.036 54.0775 349.203 51.3941C354.272 39.7417 365.887 31.5938 379.404 31.5938C397.585 31.5938 412.324 46.3327 412.324 64.5137C412.324 82.6947 397.585 97.4335 379.404 97.4336C376.478 97.4336 373.757 99.2232 372.59 101.907C367.521 113.559 355.906 121.706 342.389 121.706Z" fill="#2A0F09"/>
</g>
</g>
</g>
<defs>
<clipPath id="clip0_4002_379">
<rect width="360" height="100" fill="white"/>
</clipPath>
</defs>
</svg>
