<svg width="348" height="579" viewBox="0 0 348 579" fill="none" xmlns="http://www.w3.org/2000/svg">
<g filter="url(#filter0_d_2002_696)">
<path d="M19.7851 180.812C15.4691 195.085 26.8492 200.523 35.924 197.921C53.5652 192.862 46.4858 177.94 40.0521 174.285C39.5207 173.984 39.2631 173.304 39.5051 172.743C41.4525 168.228 46.1847 153.498 36.9012 152.564C27.9826 151.666 29.7167 164.255 31.1827 170.556C31.3845 171.423 30.2859 172.663 29.4149 172.847C28.621 173.014 27.7612 173.305 26.9919 173.673C26.2551 174.026 25.1943 173.598 25.0261 172.799C23.6918 166.457 19.0784 155.987 12.3402 160.599C5.15803 165.515 16.1139 176.191 19.5676 179.822C19.8167 180.084 19.8898 180.466 19.7851 180.812Z" fill="#2A0F09"/>
<path d="M19.7851 180.812C15.4691 195.085 26.8492 200.523 35.924 197.921C53.5652 192.862 46.4858 177.94 40.0521 174.285C39.5207 173.984 39.2631 173.304 39.5051 172.743C41.4525 168.228 46.1847 153.498 36.9012 152.564C27.9826 151.666 29.7167 164.255 31.1827 170.556C31.3845 171.423 30.2859 172.663 29.4149 172.847C28.621 173.014 27.7612 173.305 26.9919 173.673C26.2551 174.026 25.1943 173.598 25.0261 172.799C23.6918 166.457 19.0784 155.987 12.3402 160.599C5.15803 165.515 16.1139 176.191 19.5676 179.822C19.8167 180.084 19.8898 180.466 19.7851 180.812Z" stroke="white" stroke-width="2"/>
</g>
<g filter="url(#filter1_d_2002_696)">
<path d="M154.712 321.356C155.024 321.828 155.65 322.007 156.164 321.773C167.011 316.823 175.661 335.397 149.779 341.401C149.775 341.402 149.772 341.405 149.771 341.409C149.769 341.417 149.758 341.42 149.753 341.414C149.752 341.414 149.752 341.414 149.752 341.413C149.749 341.411 149.745 341.409 149.741 341.41C149.741 341.41 149.741 341.41 149.741 341.41C149.733 341.412 149.725 341.405 149.728 341.397C149.729 341.393 149.728 341.389 149.725 341.386C130.959 322.579 148.136 311.411 154.712 321.356Z" fill="white"/>
<path d="M149.728 341.397L148.767 341.121L149.728 341.397ZM149.725 341.386L149.017 342.092L149.725 341.386ZM149.741 341.41L149.506 340.438L149.741 341.41ZM149.752 341.413L149.038 342.114L149.752 341.413ZM149.741 341.41L149.976 342.383L149.741 341.41ZM149.753 341.414L150.467 340.714L149.753 341.414ZM149.779 341.401L149.553 340.427L149.779 341.401ZM156.164 321.773L156.579 322.682C161.383 320.49 165.506 323.485 165.747 327.538C165.985 331.558 162.341 337.46 149.553 340.427L149.779 341.401L150.005 342.375C163.099 339.338 168.071 332.951 167.743 327.42C167.417 321.922 161.792 318.105 155.749 320.863L156.164 321.773ZM149.753 341.414L150.467 340.714C150.466 340.713 150.466 340.713 150.466 340.713L149.752 341.413L149.038 342.114C149.038 342.114 149.038 342.114 149.038 342.114L149.753 341.414ZM149.741 341.41L149.507 340.438C149.507 340.438 149.507 340.438 149.506 340.438L149.741 341.41L149.975 342.383C149.975 342.383 149.976 342.383 149.976 342.383L149.741 341.41ZM149.725 341.386L150.433 340.679C141.16 331.387 141.198 324.451 143.53 321.168C145.882 317.858 150.966 317.504 153.878 321.908L154.712 321.356L155.546 320.805C151.883 315.264 145.09 315.52 141.9 320.01C138.691 324.526 139.523 332.578 149.017 342.092L149.725 341.386ZM149.728 341.397L150.689 341.672C150.797 341.296 150.675 340.922 150.433 340.679L149.725 341.386L149.017 342.092C148.781 341.855 148.661 341.489 148.767 341.121L149.728 341.397ZM149.741 341.41L149.506 340.438C150.244 340.26 150.898 340.945 150.689 341.672L149.728 341.397L148.767 341.121C148.553 341.865 149.221 342.565 149.975 342.383L149.741 341.41ZM149.752 341.413L150.466 340.713C150.217 340.459 149.853 340.355 149.507 340.438L149.741 341.41L149.976 342.383C149.638 342.464 149.282 342.362 149.038 342.114L149.752 341.413ZM149.771 341.409L148.81 341.133C149.018 340.406 149.935 340.172 150.467 340.714L149.753 341.414L149.038 342.114C149.582 342.668 150.519 342.429 150.732 341.685L149.771 341.409ZM149.779 341.401L149.553 340.427C149.22 340.505 148.917 340.758 148.81 341.133L149.771 341.409L150.732 341.685C150.627 342.053 150.331 342.3 150.005 342.375L149.779 341.401ZM156.164 321.773L155.749 320.863C155.721 320.876 155.682 320.881 155.638 320.868C155.593 320.855 155.563 320.83 155.546 320.805L154.712 321.356L153.878 321.908C154.461 322.79 155.617 323.121 156.579 322.682L156.164 321.773Z" fill="#2A0F09"/>
</g>
<g filter="url(#filter2_d_2002_696)">
<path d="M15.5935 543.773C16.1077 544.007 16.7341 543.828 17.0458 543.356C23.6211 533.411 40.7995 544.579 22.0329 563.386C22.03 563.389 22.0288 563.393 22.0299 563.397C22.0322 563.405 22.025 563.413 22.0167 563.411C22.0165 563.411 22.0164 563.41 22.0162 563.41C22.0123 563.41 22.0083 563.411 22.0055 563.413C22.0054 563.414 22.0052 563.414 22.0051 563.414C21.9992 563.42 21.989 563.417 21.9867 563.409C21.9856 563.405 21.9822 563.402 21.9783 563.401C-3.90262 557.397 4.74728 538.823 15.5935 543.773Z" fill="#ED758B"/>
<path d="M21.9867 563.409L22.948 563.134L21.9867 563.409ZM21.9783 563.401L22.2043 562.427L21.9783 563.401ZM22.0051 563.414L22.7192 564.114L22.0051 563.414ZM22.0162 563.41L22.2502 562.438L22.0162 563.41ZM22.0055 563.413L21.2918 562.713L22.0055 563.413ZM22.0299 563.397L22.9911 563.121L22.0299 563.397ZM22.0167 563.411L22.2513 562.438L22.0167 563.411ZM22.0329 563.386L21.325 562.679L22.0329 563.386ZM17.0458 543.356L16.2117 542.805L17.0458 543.356ZM15.5935 543.773L16.0086 542.863L15.5935 543.773ZM17.0458 543.356L17.88 543.908C20.7919 539.504 25.8758 539.858 28.2274 543.168C30.5598 546.451 30.5976 553.387 21.325 562.679L22.0329 563.386L22.7407 564.092C32.2348 554.578 33.0667 546.526 29.8578 542.01C26.668 537.52 19.8751 537.264 16.2117 542.805L17.0458 543.356ZM22.0167 563.411L22.2513 562.438C22.2509 562.438 22.2506 562.438 22.2502 562.438L22.0162 563.41L21.7821 564.383C21.7821 564.383 21.7821 564.383 21.7822 564.383L22.0167 563.411ZM22.0055 563.413L21.2918 562.713C21.2916 562.713 21.2913 562.714 21.291 562.714L22.0051 563.414L22.7192 564.114C22.7192 564.114 22.7192 564.114 22.7192 564.114L22.0055 563.413ZM21.9783 563.401L22.2043 562.427C9.41653 559.46 5.77311 553.558 6.01147 549.539C6.25178 545.486 10.3751 542.491 15.1784 544.683L15.5935 543.773L16.0086 542.863C9.96572 540.105 4.34094 543.923 4.01497 549.42C3.68705 554.951 8.65912 561.338 21.7523 564.376L21.9783 563.401ZM21.9867 563.409L22.948 563.134C22.8401 562.758 22.5379 562.505 22.2043 562.427L21.9783 563.401L21.7523 564.376C21.4265 564.3 21.131 564.053 21.0254 563.685L21.9867 563.409ZM22.0051 563.414L21.291 562.714C21.8225 562.172 22.7393 562.406 22.948 563.134L21.9867 563.409L21.0254 563.685C21.2387 564.429 22.1759 564.668 22.7192 564.114L22.0051 563.414ZM22.0162 563.41L22.2502 562.438C21.9047 562.355 21.5408 562.459 21.2918 562.713L22.0055 563.413L22.7192 564.114C22.4758 564.362 22.12 564.464 21.7821 564.383L22.0162 563.41ZM22.0299 563.397L21.0686 563.672C20.86 562.945 21.5134 562.26 22.2513 562.438L22.0167 563.411L21.7822 564.383C22.5365 564.565 23.2044 563.865 22.9911 563.121L22.0299 563.397ZM22.0329 563.386L21.325 562.679C21.083 562.922 20.9608 563.297 21.0686 563.672L22.0299 563.397L22.9911 563.121C23.0967 563.489 22.977 563.855 22.7407 564.092L22.0329 563.386ZM17.0458 543.356L16.2117 542.805C16.1948 542.83 16.1643 542.855 16.12 542.868C16.0756 542.881 16.0365 542.876 16.0086 542.863L15.5935 543.773L15.1784 544.683C16.1404 545.122 17.2968 544.79 17.88 543.908L17.0458 543.356Z" fill="white"/>
</g>
<g filter="url(#filter3_d_2002_696)">
<path d="M327.594 88.7725C328.108 89.0072 328.734 88.8275 329.046 88.356C335.621 78.4108 352.799 89.5783 334.033 108.386C334.03 108.388 334.029 108.393 334.03 108.397C334.032 108.405 334.025 108.412 334.017 108.41C334.017 108.41 334.016 108.41 334.016 108.41C334.012 108.409 334.008 108.41 334.006 108.413C334.005 108.413 334.005 108.414 334.005 108.414C333.999 108.42 333.989 108.417 333.987 108.409C333.986 108.405 333.982 108.402 333.978 108.401C308.097 102.397 316.747 83.8232 327.594 88.7725Z" fill="#ED758B"/>
<path d="M333.978 108.401L334.204 107.427L333.978 108.401ZM334.005 108.414L334.719 109.114L334.005 108.414ZM334.016 108.41L334.25 107.438L334.016 108.41ZM334.006 108.413L333.292 107.713L334.006 108.413ZM334.017 108.41L334.251 107.438L334.017 108.41ZM334.033 108.386L333.325 107.679L334.033 108.386ZM329.046 88.356L329.88 88.9076L329.046 88.356ZM327.594 88.7725L327.178 89.6823L327.594 88.7725ZM329.046 88.356L329.88 88.9076C332.792 84.5033 337.876 84.858 340.227 88.1678C342.56 91.4506 342.598 98.3865 333.325 107.679L334.033 108.386L334.741 109.092C344.235 99.5773 345.067 91.5259 341.858 87.0094C338.668 82.5199 331.875 82.2636 328.212 87.8045L329.046 88.356ZM334.017 108.41L334.251 107.438C334.251 107.438 334.251 107.438 334.25 107.438L334.016 108.41L333.782 109.382C333.782 109.382 333.782 109.382 333.782 109.382L334.017 108.41ZM334.006 108.413L333.292 107.713C333.292 107.713 333.291 107.713 333.291 107.714L334.005 108.414L334.719 109.114C334.719 109.114 334.719 109.114 334.719 109.114L334.006 108.413ZM333.978 108.401L334.204 107.427C321.417 104.46 317.773 98.5582 318.011 94.5383C318.252 90.4853 322.375 87.4904 327.178 89.6823L327.594 88.7725L328.009 87.8627C321.966 85.1052 316.341 88.9223 316.015 94.4199C315.687 99.9505 320.659 106.338 333.752 109.375L333.978 108.401ZM333.987 108.409L334.948 108.133C334.84 107.757 334.538 107.504 334.204 107.427L333.978 108.401L333.752 109.375C333.427 109.3 333.131 109.053 333.025 108.685L333.987 108.409ZM334.005 108.414L333.291 107.714C333.822 107.172 334.739 107.406 334.948 108.133L333.987 108.409L333.025 108.685C333.239 109.428 334.176 109.668 334.719 109.114L334.005 108.414ZM334.016 108.41L334.25 107.438C333.905 107.355 333.541 107.459 333.292 107.713L334.006 108.413L334.719 109.114C334.476 109.362 334.12 109.464 333.782 109.382L334.016 108.41ZM334.03 108.397L333.069 108.672C332.86 107.945 333.513 107.26 334.251 107.438L334.017 108.41L333.782 109.382C334.537 109.564 335.204 108.865 334.991 108.121L334.03 108.397ZM334.033 108.386L333.325 107.679C333.083 107.922 332.961 108.296 333.069 108.672L334.03 108.397L334.991 108.121C335.097 108.489 334.977 108.855 334.741 109.092L334.033 108.386ZM329.046 88.356L328.212 87.8045C328.195 87.83 328.164 87.8551 328.12 87.8678C328.076 87.8805 328.036 87.8754 328.009 87.8627L327.594 88.7725L327.178 89.6823C328.14 90.1213 329.297 89.7897 329.88 88.9076L329.046 88.356Z" fill="white"/>
</g>
<g filter="url(#filter4_d_2002_696)">
<path d="M312.594 417.773C313.108 418.007 313.734 417.828 314.046 417.356C320.621 407.411 337.799 418.578 319.033 437.386C319.03 437.388 319.029 437.393 319.03 437.397C319.032 437.405 319.025 437.412 319.017 437.41C319.017 437.41 319.016 437.41 319.016 437.41C319.012 437.409 319.008 437.41 319.006 437.413C319.005 437.413 319.005 437.414 319.005 437.414C318.999 437.42 318.989 437.417 318.987 437.409C318.986 437.405 318.982 437.402 318.978 437.401C293.097 431.397 301.747 412.823 312.594 417.773Z" fill="#ED758B"/>
<path d="M318.978 437.401L319.204 436.427L318.978 437.401ZM319.005 437.414L319.719 438.114L319.005 437.414ZM319.016 437.41L318.782 438.382L319.016 437.41ZM319.006 437.413L319.719 438.114L319.006 437.413ZM319.017 437.41L319.251 436.438L319.017 437.41ZM319.033 437.386L318.325 436.679L319.033 437.386ZM314.046 417.356L314.88 417.908L314.046 417.356ZM312.594 417.773L312.178 418.682L312.594 417.773ZM314.046 417.356L314.88 417.908C317.792 413.503 322.876 413.858 325.227 417.168C327.56 420.451 327.598 427.387 318.325 436.679L319.033 437.386L319.741 438.092C329.235 428.577 330.067 420.526 326.858 416.009C323.668 411.52 316.875 411.264 313.212 416.805L314.046 417.356ZM319.017 437.41L319.251 436.438C319.251 436.438 319.251 436.438 319.25 436.438L319.016 437.41L318.782 438.382C318.782 438.382 318.782 438.382 318.782 438.382L319.017 437.41ZM319.006 437.413L318.292 436.713C318.292 436.713 318.291 436.713 318.291 436.714L319.005 437.414L319.719 438.114C319.719 438.114 319.719 438.114 319.719 438.114L319.006 437.413ZM318.978 437.401L319.204 436.427C306.417 433.46 302.773 427.558 303.011 423.538C303.252 419.485 307.375 416.49 312.178 418.682L312.594 417.773L313.009 416.863C306.966 414.105 301.341 417.922 301.015 423.42C300.687 428.95 305.659 435.338 318.752 438.375L318.978 437.401ZM318.987 437.409L319.948 437.133C319.84 436.757 319.538 436.504 319.204 436.427L318.978 437.401L318.752 438.375C318.427 438.3 318.131 438.053 318.025 437.685L318.987 437.409ZM319.005 437.414L318.291 436.714C318.822 436.172 319.739 436.406 319.948 437.133L318.987 437.409L318.025 437.685C318.239 438.428 319.176 438.668 319.719 438.114L319.005 437.414ZM319.016 437.41L319.25 436.438C318.905 436.355 318.541 436.459 318.292 436.713L319.006 437.413L319.719 438.114C319.476 438.362 319.12 438.464 318.782 438.382L319.016 437.41ZM319.03 437.397L318.069 437.672C317.86 436.945 318.513 436.26 319.251 436.438L319.017 437.41L318.782 438.382C319.537 438.564 320.204 437.865 319.991 437.121L319.03 437.397ZM319.033 437.386L318.325 436.679C318.083 436.922 317.961 437.296 318.069 437.672L319.03 437.397L319.991 437.121C320.097 437.489 319.977 437.855 319.741 438.092L319.033 437.386ZM314.046 417.356L313.212 416.805C313.195 416.83 313.164 416.855 313.12 416.868C313.076 416.881 313.036 416.875 313.009 416.863L312.594 417.773L312.178 418.682C313.14 419.121 314.297 418.79 314.88 417.908L314.046 417.356Z" fill="white"/>
</g>
<g filter="url(#filter5_d_2002_696)">
<path d="M269.785 480.812C265.469 495.085 276.849 500.523 285.924 497.921C303.565 492.862 296.486 477.94 290.052 474.285C289.521 473.984 289.263 473.304 289.505 472.743C291.453 468.228 296.185 453.498 286.901 452.564C277.983 451.666 279.717 464.255 281.183 470.556C281.384 471.423 280.286 472.663 279.415 472.847C278.621 473.014 277.761 473.305 276.992 473.673C276.255 474.026 275.194 473.598 275.026 472.799C273.692 466.457 269.078 455.987 262.34 460.599C255.158 465.515 266.114 476.191 269.568 479.822C269.817 480.084 269.89 480.466 269.785 480.812Z" fill="#2A0F09"/>
<path d="M269.785 480.812C265.469 495.085 276.849 500.523 285.924 497.921C303.565 492.862 296.486 477.94 290.052 474.285C289.521 473.984 289.263 473.304 289.505 472.743C291.453 468.228 296.185 453.498 286.901 452.564C277.983 451.666 279.717 464.255 281.183 470.556C281.384 471.423 280.286 472.663 279.415 472.847C278.621 473.014 277.761 473.305 276.992 473.673C276.255 474.026 275.194 473.598 275.026 472.799C273.692 466.457 269.078 455.987 262.34 460.599C255.158 465.515 266.114 476.191 269.568 479.822C269.817 480.084 269.89 480.466 269.785 480.812Z" stroke="white" stroke-width="2"/>
</g>
<g filter="url(#filter6_d_2002_696)">
<path d="M157.209 23.5674C145.985 33.3847 152.754 44.0266 161.829 46.6287C179.47 51.6872 181.374 35.2808 177.855 28.7724C177.564 28.2349 177.706 27.5221 178.208 27.1745C182.252 24.3775 194.071 14.3936 186.694 8.68151C179.606 3.19401 174.405 14.7893 172.31 20.9094C172.021 21.7516 170.432 22.2214 169.596 21.9156C168.834 21.6369 167.951 21.4275 167.104 21.3324C166.292 21.2412 165.619 20.3162 165.9 19.5491C168.129 13.4637 169.765 2.14014 161.607 2.48049C152.911 2.84326 156.544 17.7028 157.549 22.6129C157.621 22.9671 157.481 23.3293 157.209 23.5674Z" fill="white"/>
<path d="M157.209 23.5674C145.985 33.3847 152.754 44.0266 161.829 46.6287C179.47 51.6872 181.374 35.2808 177.855 28.7724C177.564 28.2349 177.706 27.5221 178.208 27.1745C182.252 24.3775 194.071 14.3936 186.694 8.68151C179.606 3.19401 174.405 14.7893 172.31 20.9094C172.021 21.7516 170.432 22.2214 169.596 21.9156C168.834 21.6369 167.951 21.4275 167.104 21.3324C166.292 21.2412 165.619 20.3162 165.9 19.5491C168.129 13.4637 169.765 2.14014 161.607 2.48049C152.911 2.84326 156.544 17.7028 157.549 22.6129C157.621 22.9671 157.481 23.3293 157.209 23.5674Z" stroke="#2A0F09" stroke-width="2"/>
</g>
<g filter="url(#filter7_d_2002_696)">
<path d="M166.209 474.567C154.985 484.385 161.754 495.027 170.829 497.629C188.47 502.687 190.374 486.281 186.855 479.772C186.564 479.235 186.706 478.522 187.208 478.175C191.252 475.378 203.071 465.394 195.694 459.682C188.606 454.194 183.405 465.789 181.31 471.909C181.021 472.752 179.432 473.221 178.596 472.916C177.834 472.637 176.951 472.428 176.104 472.332C175.292 472.241 174.619 471.316 174.9 470.549C177.129 464.464 178.765 453.14 170.607 453.48C161.911 453.843 165.544 468.703 166.549 473.613C166.621 473.967 166.481 474.329 166.209 474.567Z" fill="white"/>
<path d="M166.209 474.567C154.985 484.385 161.754 495.027 170.829 497.629C188.47 502.687 190.374 486.281 186.855 479.772C186.564 479.235 186.706 478.522 187.208 478.175C191.252 475.378 203.071 465.394 195.694 459.682C188.606 454.194 183.405 465.789 181.31 471.909C181.021 472.752 179.432 473.221 178.596 472.916C177.834 472.637 176.951 472.428 176.104 472.332C175.292 472.241 174.619 471.316 174.9 470.549C177.129 464.464 178.765 453.14 170.607 453.48C161.911 453.843 165.544 468.703 166.549 473.613C166.621 473.967 166.481 474.329 166.209 474.567Z" stroke="#2A0F09" stroke-width="2"/>
</g>
<defs>
<filter id="filter0_d_2002_696" x="4.94873" y="151.518" width="47.1006" height="62.0303" filterUnits="userSpaceOnUse" color-interpolation-filters="sRGB">
<feFlood flood-opacity="0" result="BackgroundImageFix"/>
<feColorMatrix in="SourceAlpha" type="matrix" values="0 0 0 0 0 0 0 0 0 0 0 0 0 0 0 0 0 0 127 0" result="hardAlpha"/>
<feOffset dy="10"/>
<feGaussianBlur stdDeviation="2"/>
<feComposite in2="hardAlpha" operator="out"/>
<feColorMatrix type="matrix" values="0 0 0 0 0 0 0 0 0 0 0 0 0 0 0 0 0 0 0.25 0"/>
<feBlend mode="normal" in2="BackgroundImageFix" result="effect1_dropShadow_2002_696"/>
<feBlend mode="normal" in="SourceGraphic" in2="effect1_dropShadow_2002_696" result="shape"/>
</filter>
<filter id="filter1_d_2002_696" x="136.209" y="316.643" width="35.5493" height="39.7747" filterUnits="userSpaceOnUse" color-interpolation-filters="sRGB">
<feFlood flood-opacity="0" result="BackgroundImageFix"/>
<feColorMatrix in="SourceAlpha" type="matrix" values="0 0 0 0 0 0 0 0 0 0 0 0 0 0 0 0 0 0 127 0" result="hardAlpha"/>
<feOffset dy="10"/>
<feGaussianBlur stdDeviation="2"/>
<feComposite in2="hardAlpha" operator="out"/>
<feColorMatrix type="matrix" values="0 0 0 0 0 0 0 0 0 0 0 0 0 0 0 0 0 0 0.25 0"/>
<feBlend mode="normal" in2="BackgroundImageFix" result="effect1_dropShadow_2002_696"/>
<feBlend mode="normal" in="SourceGraphic" in2="effect1_dropShadow_2002_696" result="shape"/>
</filter>
<filter id="filter2_d_2002_696" x="0" y="538.643" width="35.5483" height="39.7749" filterUnits="userSpaceOnUse" color-interpolation-filters="sRGB">
<feFlood flood-opacity="0" result="BackgroundImageFix"/>
<feColorMatrix in="SourceAlpha" type="matrix" values="0 0 0 0 0 0 0 0 0 0 0 0 0 0 0 0 0 0 127 0" result="hardAlpha"/>
<feOffset dy="10"/>
<feGaussianBlur stdDeviation="2"/>
<feComposite in2="hardAlpha" operator="out"/>
<feColorMatrix type="matrix" values="0 0 0 0 0 0 0 0 0 0 0 0 0 0 0 0 0 0 0.25 0"/>
<feBlend mode="normal" in2="BackgroundImageFix" result="effect1_dropShadow_2002_696"/>
<feBlend mode="normal" in="SourceGraphic" in2="effect1_dropShadow_2002_696" result="shape"/>
</filter>
<filter id="filter3_d_2002_696" x="312" y="83.6428" width="35.5483" height="39.7749" filterUnits="userSpaceOnUse" color-interpolation-filters="sRGB">
<feFlood flood-opacity="0" result="BackgroundImageFix"/>
<feColorMatrix in="SourceAlpha" type="matrix" values="0 0 0 0 0 0 0 0 0 0 0 0 0 0 0 0 0 0 127 0" result="hardAlpha"/>
<feOffset dy="10"/>
<feGaussianBlur stdDeviation="2"/>
<feComposite in2="hardAlpha" operator="out"/>
<feColorMatrix type="matrix" values="0 0 0 0 0 0 0 0 0 0 0 0 0 0 0 0 0 0 0.25 0"/>
<feBlend mode="normal" in2="BackgroundImageFix" result="effect1_dropShadow_2002_696"/>
<feBlend mode="normal" in="SourceGraphic" in2="effect1_dropShadow_2002_696" result="shape"/>
</filter>
<filter id="filter4_d_2002_696" x="297" y="412.643" width="35.5483" height="39.7749" filterUnits="userSpaceOnUse" color-interpolation-filters="sRGB">
<feFlood flood-opacity="0" result="BackgroundImageFix"/>
<feColorMatrix in="SourceAlpha" type="matrix" values="0 0 0 0 0 0 0 0 0 0 0 0 0 0 0 0 0 0 127 0" result="hardAlpha"/>
<feOffset dy="10"/>
<feGaussianBlur stdDeviation="2"/>
<feComposite in2="hardAlpha" operator="out"/>
<feColorMatrix type="matrix" values="0 0 0 0 0 0 0 0 0 0 0 0 0 0 0 0 0 0 0.25 0"/>
<feBlend mode="normal" in2="BackgroundImageFix" result="effect1_dropShadow_2002_696"/>
<feBlend mode="normal" in="SourceGraphic" in2="effect1_dropShadow_2002_696" result="shape"/>
</filter>
<filter id="filter5_d_2002_696" x="254.949" y="451.518" width="47.1006" height="62.0303" filterUnits="userSpaceOnUse" color-interpolation-filters="sRGB">
<feFlood flood-opacity="0" result="BackgroundImageFix"/>
<feColorMatrix in="SourceAlpha" type="matrix" values="0 0 0 0 0 0 0 0 0 0 0 0 0 0 0 0 0 0 127 0" result="hardAlpha"/>
<feOffset dy="10"/>
<feGaussianBlur stdDeviation="2"/>
<feComposite in2="hardAlpha" operator="out"/>
<feColorMatrix type="matrix" values="0 0 0 0 0 0 0 0 0 0 0 0 0 0 0 0 0 0 0.25 0"/>
<feBlend mode="normal" in2="BackgroundImageFix" result="effect1_dropShadow_2002_696"/>
<feBlend mode="normal" in="SourceGraphic" in2="effect1_dropShadow_2002_696" result="shape"/>
</filter>
<filter id="filter6_d_2002_696" x="146.344" y="1.47314" width="47.7217" height="61.1091" filterUnits="userSpaceOnUse" color-interpolation-filters="sRGB">
<feFlood flood-opacity="0" result="BackgroundImageFix"/>
<feColorMatrix in="SourceAlpha" type="matrix" values="0 0 0 0 0 0 0 0 0 0 0 0 0 0 0 0 0 0 127 0" result="hardAlpha"/>
<feOffset dy="10"/>
<feGaussianBlur stdDeviation="2"/>
<feComposite in2="hardAlpha" operator="out"/>
<feColorMatrix type="matrix" values="0 0 0 0 0 0 0 0 0 0 0 0 0 0 0 0 0 0 0.25 0"/>
<feBlend mode="normal" in2="BackgroundImageFix" result="effect1_dropShadow_2002_696"/>
<feBlend mode="normal" in="SourceGraphic" in2="effect1_dropShadow_2002_696" result="shape"/>
</filter>
<filter id="filter7_d_2002_696" x="155.344" y="452.473" width="47.7217" height="61.1091" filterUnits="userSpaceOnUse" color-interpolation-filters="sRGB">
<feFlood flood-opacity="0" result="BackgroundImageFix"/>
<feColorMatrix in="SourceAlpha" type="matrix" values="0 0 0 0 0 0 0 0 0 0 0 0 0 0 0 0 0 0 127 0" result="hardAlpha"/>
<feOffset dy="10"/>
<feGaussianBlur stdDeviation="2"/>
<feComposite in2="hardAlpha" operator="out"/>
<feColorMatrix type="matrix" values="0 0 0 0 0 0 0 0 0 0 0 0 0 0 0 0 0 0 0.25 0"/>
<feBlend mode="normal" in2="BackgroundImageFix" result="effect1_dropShadow_2002_696"/>
<feBlend mode="normal" in="SourceGraphic" in2="effect1_dropShadow_2002_696" result="shape"/>
</filter>
</defs>
</svg>
