<svg width="1240" height="712" viewBox="0 0 1240 712" fill="none" xmlns="http://www.w3.org/2000/svg">
<mask id="mask0_2002_1162" style="mask-type:alpha" maskUnits="userSpaceOnUse" x="0" y="0" width="1240" height="712">
<rect width="1240" height="712" rx="20" fill="#D9D9D9"/>
</mask>
<g mask="url(#mask0_2002_1162)">
<path d="M1220.5 -202C1310.25 -202 1383 -129.246 1383 -39.5C1383 -3.59418 1371.35 29.5906 1351.63 56.4852C1344.43 66.3082 1347.43 81.2849 1357.03 88.7854C1378.92 105.898 1393 132.555 1393 162.5C1393 214.139 1351.14 256 1299.5 256C1247.86 256 1206 214.139 1206 162.5C1206 157.363 1206.41 152.323 1207.21 147.412C1209.16 135.376 1201.2 122.324 1189.23 119.991C1157.14 113.736 1128.42 98.0367 1106.1 75.9027C1099.64 69.5006 1089.47 68.325 1081.58 72.849C1062.55 83.7606 1040.51 90 1017 90C977.679 90 942.436 72.5422 918.598 44.955C910.477 35.5563 894.828 34.6181 885.769 43.1172C860.729 66.6108 827.045 81 790 81C749.262 81 712.589 63.6003 687.005 35.8272C681.348 29.6864 672.353 27.6768 664.505 30.5244C652.956 34.7145 640.495 37 627.5 37C604.515 37 583.2 29.8531 565.655 17.6602C556.501 11.2992 543.188 12.6939 535.552 20.8141C515.763 41.858 487.667 55 456.5 55C396.577 55 348 6.4229 348 -53.5C348 -113.423 396.577 -162 456.5 -162C479.484 -162 500.8 -154.853 518.344 -142.661C527.498 -136.3 540.811 -137.695 548.447 -145.815C568.237 -166.858 596.333 -180 627.5 -180C646.406 -180 664.183 -175.164 679.661 -166.661C686.984 -162.638 696.188 -163.254 702.718 -168.467C726.652 -187.576 756.992 -199 790 -199C835.453 -199 875.846 -177.339 901.421 -143.778C908.951 -133.896 924.542 -132.222 934.109 -140.148C956.609 -158.793 985.496 -170 1017 -170C1040.73 -170 1062.98 -163.639 1082.13 -152.529C1090 -147.966 1100.18 -149.092 1106.67 -155.463C1135.98 -184.247 1176.17 -202 1220.5 -202ZM112.5 -145C172.423 -145 221 -96.4229 221 -36.5C221 23.4229 172.423 72 112.5 72C111.973 72 111.448 71.9962 110.923 71.9887C102.173 71.8637 94.0293 77.2228 90.6557 85.2975C74.2886 124.471 35.6095 152 -9.5 152C-69.4229 152 -118 103.423 -118 43.5C-118 -16.4229 -69.4229 -65 -9.5 -65C-8.97375 -65 -8.44839 -64.9962 -7.92392 -64.9888C0.826103 -64.864 8.96975 -70.2237 12.3434 -78.2981C28.7107 -117.472 67.3907 -145 112.5 -145Z" fill="#2A0F09"/>
<path d="M399 957C348.411 957 304.09 930.166 279.491 889.956C274.441 881.702 264.015 878 254.853 881.114C241.72 885.578 227.643 888 213 888C187.015 888 162.81 880.376 142.501 867.242C135.288 862.578 125.742 862.889 118.996 868.205C91.3429 889.997 56.4402 903 18.5 903C-71.2462 903 -144 830.246 -144 740.5C-144 702.481 -130.942 667.512 -109.067 639.831C-101.753 630.576 -103.853 616.189 -112.662 608.343C-131.89 591.218 -144 566.274 -144 538.5C-144 486.861 -102.139 445 -50.5 445C1.13867 445 43 486.861 43 538.5C43 544.356 42.4614 550.087 41.4313 555.645C39.2778 567.264 46.4352 579.958 57.9016 582.813C90.2439 590.868 118.754 608.611 140.17 632.784C145.863 639.209 155.195 641.21 163.12 637.914C178.48 631.527 195.328 628 213 628C256.22 628 294.512 649.092 318.149 681.544C323.845 689.366 334.504 692.333 343.382 688.485C360.43 681.096 379.237 677 399 677C476.32 677 539 739.68 539 817C539 894.32 476.32 957 399 957ZM1046.5 901C986.577 901 938 852.423 938 792.5C938 732.577 986.577 684 1046.5 684C1052.25 684 1057.89 684.447 1063.39 685.308C1073.19 686.84 1083.23 681.402 1086.9 672.189C1107.5 620.518 1157.98 584 1217 584C1294.32 584 1357 646.68 1357 724C1357 801.32 1294.32 864 1217 864C1196.27 864 1176.59 859.494 1158.89 851.409C1149.88 847.289 1138.87 850.302 1132.86 858.189C1113.04 884.207 1081.73 901 1046.5 901Z" fill="#2A0F09"/>
</g>
<g filter="url(#filter0_d_2002_1162)">
<path d="M61.4721 275.812C57.1561 290.085 68.5363 295.523 77.611 292.921C95.2522 287.862 88.1728 272.94 81.7391 269.285C81.2077 268.984 80.9501 268.304 81.1922 267.743C83.1395 263.228 87.8717 248.498 78.5882 247.564C69.6697 246.666 71.4037 259.255 72.8697 265.556C73.0715 266.423 71.9729 267.663 71.1019 267.847C70.308 268.014 69.4482 268.305 68.6789 268.673C67.9421 269.026 66.8813 268.598 66.7131 267.799C65.3788 261.457 60.7654 250.987 54.0272 255.599C46.845 260.515 57.8009 271.191 61.2546 274.822C61.5037 275.084 61.5768 275.466 61.4721 275.812Z" fill="#2A0F09"/>
<path d="M61.4721 275.812C57.1561 290.085 68.5363 295.523 77.611 292.921C95.2522 287.862 88.1728 272.94 81.7391 269.285C81.2077 268.984 80.9501 268.304 81.1922 267.743C83.1395 263.228 87.8717 248.498 78.5882 247.564C69.6697 246.666 71.4037 259.255 72.8697 265.556C73.0715 266.423 71.9729 267.663 71.1019 267.847C70.308 268.014 69.4482 268.305 68.6789 268.673C67.9421 269.026 66.8813 268.598 66.7131 267.799C65.3788 261.457 60.7654 250.987 54.0272 255.599C46.845 260.515 57.8009 271.191 61.2546 274.822C61.5037 275.084 61.5768 275.466 61.4721 275.812Z" stroke="white" stroke-width="2"/>
</g>
<g filter="url(#filter1_d_2002_1162)">
<path d="M161.399 332.356C161.711 332.827 162.337 333.007 162.851 332.772C173.698 327.823 182.348 346.396 156.466 352.401C156.462 352.402 156.459 352.405 156.458 352.409C156.456 352.417 156.445 352.42 156.44 352.414C156.439 352.413 156.439 352.413 156.439 352.413C156.436 352.41 156.432 352.409 156.428 352.41C156.428 352.41 156.428 352.41 156.428 352.41C156.42 352.412 156.412 352.405 156.415 352.396C156.416 352.393 156.415 352.388 156.412 352.385C137.646 333.578 154.823 322.411 161.399 332.356Z" fill="white"/>
<path d="M156.412 352.385L155.704 353.092L156.412 352.385ZM156.428 352.41L156.193 351.438L156.428 352.41ZM156.439 352.413L157.153 351.713L156.439 352.413ZM156.428 352.41L156.663 353.382L156.428 352.41ZM156.44 352.414L155.725 353.114L156.44 352.414ZM156.466 352.401L156.24 351.427L156.466 352.401ZM162.851 332.772L163.266 333.682L162.851 332.772ZM161.399 332.356L162.233 331.804L161.399 332.356ZM162.851 332.772L163.266 333.682C168.07 331.49 172.193 334.485 172.434 338.538C172.672 342.558 169.028 348.46 156.24 351.427L156.466 352.401L156.692 353.375C169.786 350.337 174.758 343.95 174.43 338.42C174.104 332.922 168.479 329.105 162.436 331.863L162.851 332.772ZM156.44 352.414L157.154 351.713C157.153 351.713 157.153 351.713 157.153 351.713L156.439 352.413L155.725 353.114C155.725 353.114 155.725 353.114 155.725 353.114L156.44 352.414ZM156.428 352.41L156.194 351.438C156.194 351.438 156.194 351.438 156.193 351.438L156.428 352.41L156.662 353.382C156.663 353.382 156.663 353.382 156.663 353.382L156.428 352.41ZM156.412 352.385L157.12 351.679C147.847 342.387 147.885 335.451 150.217 332.168C152.569 328.858 157.653 328.503 160.565 332.907L161.399 332.356L162.233 331.804C158.57 326.264 151.777 326.52 148.587 331.01C145.378 335.526 146.21 343.577 155.704 353.092L156.412 352.385ZM156.415 352.396L157.376 352.672C157.484 352.296 157.362 351.921 157.12 351.679L156.412 352.385L155.704 353.092C155.468 352.855 155.348 352.489 155.454 352.121L156.415 352.396ZM156.428 352.41L156.193 351.438C156.931 351.26 157.585 351.945 157.376 352.672L156.415 352.396L155.454 352.121C155.24 352.865 155.908 353.564 156.662 353.382L156.428 352.41ZM156.439 352.413L157.153 351.713C156.904 351.459 156.54 351.355 156.194 351.438L156.428 352.41L156.663 353.382C156.325 353.464 155.969 353.362 155.725 353.114L156.439 352.413ZM156.458 352.409L155.497 352.133C155.705 351.406 156.622 351.171 157.154 351.713L156.44 352.414L155.725 353.114C156.269 353.668 157.206 353.428 157.419 352.685L156.458 352.409ZM156.466 352.401L156.24 351.427C155.907 351.504 155.604 351.757 155.497 352.133L156.458 352.409L157.419 352.685C157.314 353.053 157.018 353.3 156.692 353.375L156.466 352.401ZM162.851 332.772L162.436 331.863C162.408 331.875 162.369 331.88 162.325 331.868C162.28 331.855 162.25 331.83 162.233 331.804L161.399 332.356L160.565 332.907C161.148 333.79 162.304 334.121 163.266 333.682L162.851 332.772Z" fill="#2A0F09"/>
</g>
<g filter="url(#filter2_d_2002_1162)">
<path d="M55.2805 605.773C55.7947 606.007 56.4211 605.828 56.7328 605.356C63.3081 595.411 80.4865 606.578 61.7199 625.386C61.717 625.388 61.7158 625.393 61.7169 625.397C61.7192 625.405 61.712 625.412 61.7037 625.41C61.7036 625.41 61.7034 625.41 61.7032 625.41C61.6993 625.409 61.6953 625.41 61.6925 625.413C61.6924 625.413 61.6922 625.414 61.6921 625.414C61.6862 625.42 61.676 625.417 61.6737 625.409C61.6726 625.405 61.6692 625.402 61.6653 625.401C35.7844 619.397 44.4343 600.823 55.2805 605.773Z" fill="#ED758B"/>
<path d="M61.6737 625.409L62.635 625.133L61.6737 625.409ZM61.6653 625.401L61.8913 624.427L61.6653 625.401ZM61.6921 625.414L60.978 624.714L61.6921 625.414ZM61.7032 625.41L61.9372 624.438L61.7032 625.41ZM61.6925 625.413L62.4062 626.114L61.6925 625.413ZM61.7037 625.41L61.9383 624.438L61.7037 625.41ZM61.7199 625.386L61.012 624.679L61.7199 625.386ZM56.7328 605.356L57.567 605.908C60.4789 601.503 65.5628 601.858 67.9144 605.168C70.2468 608.451 70.2846 615.387 61.012 624.679L61.7199 625.386L62.4277 626.092C71.9218 616.577 72.7537 608.526 69.5448 604.009C66.355 599.52 59.5621 599.264 55.8987 604.805L56.7328 605.356ZM61.7037 625.41L61.9383 624.438C61.938 624.438 61.9376 624.438 61.9372 624.438L61.7032 625.41L61.4691 626.382C61.4691 626.382 61.4692 626.382 61.4692 626.382L61.7037 625.41ZM61.6925 625.413L60.9788 624.713C60.9786 624.713 60.9783 624.713 60.978 624.714L61.6921 625.414L62.4062 626.114C62.4062 626.114 62.4062 626.114 62.4062 626.114L61.6925 625.413ZM61.6653 625.401L61.8913 624.427C49.1035 621.46 45.4601 615.558 45.6985 611.538C45.9388 607.485 50.0621 604.49 54.8654 606.682L55.2805 605.773L55.6957 604.863C49.6527 602.105 44.028 605.922 43.702 611.42C43.3741 616.95 48.3461 623.338 61.4393 626.375L61.6653 625.401ZM61.6737 625.409L62.635 625.133C62.5271 624.757 62.2249 624.504 61.8913 624.427L61.6653 625.401L61.4393 626.375C61.1136 626.3 60.818 626.053 60.7124 625.685L61.6737 625.409ZM61.6921 625.414L60.978 624.714C61.5095 624.172 62.4263 624.406 62.635 625.133L61.6737 625.409L60.7124 625.685C60.9257 626.428 61.8629 626.668 62.4062 626.114L61.6921 625.414ZM61.7032 625.41L61.9372 624.438C61.5917 624.355 61.2278 624.459 60.9788 624.713L61.6925 625.413L62.4062 626.114C62.1628 626.362 61.807 626.464 61.4691 626.382L61.7032 625.41ZM61.7169 625.397L60.7556 625.672C60.547 624.945 61.2004 624.26 61.9383 624.438L61.7037 625.41L61.4692 626.382C62.2235 626.564 62.8914 625.865 62.6781 625.121L61.7169 625.397ZM61.7199 625.386L61.012 624.679C60.77 624.922 60.6478 625.296 60.7556 625.672L61.7169 625.397L62.6781 625.121C62.7837 625.489 62.6641 625.855 62.4277 626.092L61.7199 625.386ZM56.7328 605.356L55.8987 604.805C55.8818 604.83 55.8514 604.855 55.807 604.868C55.7626 604.881 55.7235 604.875 55.6957 604.863L55.2805 605.773L54.8654 606.682C55.8274 607.121 56.9838 606.79 57.567 605.908L56.7328 605.356Z" fill="white"/>
</g>
<g filter="url(#filter3_d_2002_1162)">
<path d="M1204.28 237.773C1204.79 238.007 1205.42 237.828 1205.73 237.356C1212.31 227.411 1229.49 238.578 1210.72 257.386C1210.72 257.388 1210.72 257.393 1210.72 257.397C1210.72 257.405 1210.71 257.412 1210.7 257.41C1210.7 257.41 1210.7 257.41 1210.7 257.41C1210.7 257.409 1210.7 257.41 1210.69 257.413C1210.69 257.413 1210.69 257.414 1210.69 257.414C1210.69 257.42 1210.68 257.417 1210.67 257.409C1210.67 257.405 1210.67 257.402 1210.67 257.401C1184.78 251.397 1193.43 232.823 1204.28 237.773Z" fill="#ED758B"/>
<path d="M1210.67 257.401L1210.89 256.427L1210.67 257.401ZM1210.69 257.414L1211.41 258.114L1210.69 257.414ZM1210.7 257.41L1210.94 256.438L1210.7 257.41ZM1210.69 257.413L1209.98 256.713L1210.69 257.413ZM1210.7 257.41L1210.94 256.438L1210.7 257.41ZM1210.72 257.386L1210.01 256.679L1210.72 257.386ZM1205.73 237.356L1204.9 236.805L1205.73 237.356ZM1204.28 237.773L1204.7 236.863L1204.28 237.773ZM1205.73 237.356L1206.57 237.908C1209.48 233.503 1214.56 233.858 1216.91 237.168C1219.25 240.451 1219.28 247.387 1210.01 256.679L1210.72 257.386L1211.43 258.092C1220.92 248.577 1221.75 240.526 1218.54 236.009C1215.35 231.52 1208.56 231.264 1204.9 236.805L1205.73 237.356ZM1210.7 257.41L1210.94 256.438C1210.94 256.438 1210.94 256.438 1210.94 256.438L1210.7 257.41L1210.47 258.382C1210.47 258.382 1210.47 258.382 1210.47 258.382L1210.7 257.41ZM1210.69 257.413L1209.98 256.713C1209.98 256.713 1209.98 256.713 1209.98 256.714L1210.69 257.414L1211.41 258.114C1211.41 258.114 1211.41 258.114 1211.41 258.114L1210.69 257.413ZM1210.67 257.401L1210.89 256.427C1198.1 253.46 1194.46 247.558 1194.7 243.538C1194.94 239.485 1199.06 236.49 1203.87 238.682L1204.28 237.773L1204.7 236.863C1198.65 234.105 1193.03 237.922 1192.7 243.42C1192.37 248.95 1197.35 255.338 1210.44 258.375L1210.67 257.401ZM1210.67 257.409L1211.63 257.133C1211.53 256.757 1211.22 256.504 1210.89 256.427L1210.67 257.401L1210.44 258.375C1210.11 258.3 1209.82 258.053 1209.71 257.685L1210.67 257.409ZM1210.69 257.414L1209.98 256.714C1210.51 256.172 1211.43 256.406 1211.63 257.133L1210.67 257.409L1209.71 257.685C1209.93 258.428 1210.86 258.668 1211.41 258.114L1210.69 257.414ZM1210.7 257.41L1210.94 256.438C1210.59 256.355 1210.23 256.459 1209.98 256.713L1210.69 257.413L1211.41 258.114C1211.16 258.362 1210.81 258.464 1210.47 258.382L1210.7 257.41ZM1210.72 257.397L1209.76 257.672C1209.55 256.945 1210.2 256.26 1210.94 256.438L1210.7 257.41L1210.47 258.382C1211.22 258.564 1211.89 257.865 1211.68 257.121L1210.72 257.397ZM1210.72 257.386L1210.01 256.679C1209.77 256.922 1209.65 257.296 1209.76 257.672L1210.72 257.397L1211.68 257.121C1211.78 257.489 1211.66 257.855 1211.43 258.092L1210.72 257.386ZM1205.73 237.356L1204.9 236.805C1204.88 236.83 1204.85 236.855 1204.81 236.868C1204.76 236.881 1204.72 236.875 1204.7 236.863L1204.28 237.773L1203.87 238.682C1204.83 239.121 1205.98 238.79 1206.57 237.908L1205.73 237.356Z" fill="white"/>
</g>
<g filter="url(#filter4_d_2002_1162)">
<path d="M1128.47 522.812C1124.16 537.085 1135.54 542.523 1144.61 539.921C1162.25 534.862 1155.17 519.94 1148.74 516.285C1148.21 515.984 1147.95 515.304 1148.19 514.743C1150.14 510.228 1154.87 495.498 1145.59 494.564C1136.67 493.666 1138.4 506.255 1139.87 512.556C1140.07 513.423 1138.97 514.663 1138.1 514.847C1137.31 515.014 1136.45 515.305 1135.68 515.673C1134.94 516.026 1133.88 515.598 1133.71 514.799C1132.38 508.457 1127.77 497.987 1121.03 502.599C1113.85 507.515 1124.8 518.191 1128.25 521.822C1128.5 522.084 1128.58 522.466 1128.47 522.812Z" fill="#2A0F09"/>
<path d="M1128.47 522.812C1124.16 537.085 1135.54 542.523 1144.61 539.921C1162.25 534.862 1155.17 519.94 1148.74 516.285C1148.21 515.984 1147.95 515.304 1148.19 514.743C1150.14 510.228 1154.87 495.498 1145.59 494.564C1136.67 493.666 1138.4 506.255 1139.87 512.556C1140.07 513.423 1138.97 514.663 1138.1 514.847C1137.31 515.014 1136.45 515.305 1135.68 515.673C1134.94 516.026 1133.88 515.598 1133.71 514.799C1132.38 508.457 1127.77 497.987 1121.03 502.599C1113.85 507.515 1124.8 518.191 1128.25 521.822C1128.5 522.084 1128.58 522.466 1128.47 522.812Z" stroke="white" stroke-width="2"/>
</g>
<g filter="url(#filter5_d_2002_1162)">
<path d="M401.896 59.5674C390.672 69.3847 397.441 80.0266 406.516 82.6287C424.157 87.6872 426.061 71.2808 422.542 64.7724C422.251 64.2349 422.393 63.5221 422.895 63.1745C426.939 60.3775 438.758 50.3936 431.381 44.6815C424.293 39.194 419.092 50.7893 416.997 56.9094C416.708 57.7516 415.119 58.2214 414.283 57.9156C413.521 57.6369 412.638 57.4275 411.791 57.3324C410.979 57.2412 410.306 56.3162 410.587 55.5491C412.816 49.4637 414.452 38.1401 406.294 38.4805C397.598 38.8433 401.231 53.7028 402.236 58.6129C402.308 58.9671 402.168 59.3293 401.896 59.5674Z" fill="white"/>
<path d="M401.896 59.5674C390.672 69.3847 397.441 80.0266 406.516 82.6287C424.157 87.6872 426.061 71.2808 422.542 64.7724C422.251 64.2349 422.393 63.5221 422.895 63.1745C426.939 60.3775 438.758 50.3936 431.381 44.6815C424.293 39.194 419.092 50.7893 416.997 56.9094C416.708 57.7516 415.119 58.2214 414.283 57.9156C413.521 57.6369 412.638 57.4275 411.791 57.3324C410.979 57.2412 410.306 56.3162 410.587 55.5491C412.816 49.4637 414.452 38.1401 406.294 38.4805C397.598 38.8433 401.231 53.7028 402.236 58.6129C402.308 58.9671 402.168 59.3293 401.896 59.5674Z" stroke="#2A0F09" stroke-width="2"/>
</g>
<g filter="url(#filter6_d_2002_1162)">
<path d="M232.896 640.567C221.672 650.385 228.441 661.027 237.516 663.629C255.157 668.687 257.061 652.281 253.542 645.772C253.251 645.235 253.393 644.522 253.895 644.175C257.939 641.378 269.758 631.394 262.381 625.682C255.293 620.194 250.092 631.789 247.997 637.909C247.708 638.752 246.119 639.221 245.283 638.916C244.521 638.637 243.638 638.428 242.791 638.332C241.979 638.241 241.306 637.316 241.587 636.549C243.816 630.464 245.452 619.14 237.294 619.48C228.598 619.843 232.231 634.703 233.236 639.613C233.308 639.967 233.168 640.329 232.896 640.567Z" fill="white"/>
<path d="M232.896 640.567C221.672 650.385 228.441 661.027 237.516 663.629C255.157 668.687 257.061 652.281 253.542 645.772C253.251 645.235 253.393 644.522 253.895 644.175C257.939 641.378 269.758 631.394 262.381 625.682C255.293 620.194 250.092 631.789 247.997 637.909C247.708 638.752 246.119 639.221 245.283 638.916C244.521 638.637 243.638 638.428 242.791 638.332C241.979 638.241 241.306 637.316 241.587 636.549C243.816 630.464 245.452 619.14 237.294 619.48C228.598 619.843 232.231 634.703 233.236 639.613C233.308 639.967 233.168 640.329 232.896 640.567Z" stroke="#2A0F09" stroke-width="2"/>
</g>
<g filter="url(#filter7_d_2002_1162)">
<path d="M937.896 72.5674C926.672 82.3847 933.441 93.0266 942.516 95.6287C960.157 100.687 962.061 84.2808 958.542 77.7724C958.251 77.2349 958.393 76.5221 958.895 76.1745C962.939 73.3775 974.758 63.3936 967.381 57.6815C960.293 52.194 955.092 63.7893 952.997 69.9094C952.708 70.7516 951.119 71.2214 950.283 70.9156C949.521 70.6369 948.638 70.4275 947.791 70.3324C946.979 70.2412 946.306 69.3162 946.587 68.5491C948.816 62.4637 950.452 51.1401 942.294 51.4805C933.598 51.8433 937.231 66.7028 938.236 71.6129C938.308 71.9671 938.168 72.3293 937.896 72.5674Z" fill="white"/>
<path d="M937.896 72.5674C926.672 82.3847 933.441 93.0266 942.516 95.6287C960.157 100.687 962.061 84.2808 958.542 77.7724C958.251 77.2349 958.393 76.5221 958.895 76.1745C962.939 73.3775 974.758 63.3936 967.381 57.6815C960.293 52.194 955.092 63.7893 952.997 69.9094C952.708 70.7516 951.119 71.2214 950.283 70.9156C949.521 70.6369 948.638 70.4275 947.791 70.3324C946.979 70.2412 946.306 69.3162 946.587 68.5491C948.816 62.4637 950.452 51.1401 942.294 51.4805C933.598 51.8433 937.231 66.7028 938.236 71.6129C938.308 71.9671 938.168 72.3293 937.896 72.5674Z" stroke="#2A0F09" stroke-width="2"/>
</g>
<defs>
<filter id="filter0_d_2002_1162" x="46.6357" y="246.518" width="47.1006" height="62.0303" filterUnits="userSpaceOnUse" color-interpolation-filters="sRGB">
<feFlood flood-opacity="0" result="BackgroundImageFix"/>
<feColorMatrix in="SourceAlpha" type="matrix" values="0 0 0 0 0 0 0 0 0 0 0 0 0 0 0 0 0 0 127 0" result="hardAlpha"/>
<feOffset dy="10"/>
<feGaussianBlur stdDeviation="2"/>
<feComposite in2="hardAlpha" operator="out"/>
<feColorMatrix type="matrix" values="0 0 0 0 0 0 0 0 0 0 0 0 0 0 0 0 0 0 0.25 0"/>
<feBlend mode="normal" in2="BackgroundImageFix" result="effect1_dropShadow_2002_1162"/>
<feBlend mode="normal" in="SourceGraphic" in2="effect1_dropShadow_2002_1162" result="shape"/>
</filter>
<filter id="filter1_d_2002_1162" x="142.896" y="327.643" width="35.5493" height="39.7747" filterUnits="userSpaceOnUse" color-interpolation-filters="sRGB">
<feFlood flood-opacity="0" result="BackgroundImageFix"/>
<feColorMatrix in="SourceAlpha" type="matrix" values="0 0 0 0 0 0 0 0 0 0 0 0 0 0 0 0 0 0 127 0" result="hardAlpha"/>
<feOffset dy="10"/>
<feGaussianBlur stdDeviation="2"/>
<feComposite in2="hardAlpha" operator="out"/>
<feColorMatrix type="matrix" values="0 0 0 0 0 0 0 0 0 0 0 0 0 0 0 0 0 0 0.25 0"/>
<feBlend mode="normal" in2="BackgroundImageFix" result="effect1_dropShadow_2002_1162"/>
<feBlend mode="normal" in="SourceGraphic" in2="effect1_dropShadow_2002_1162" result="shape"/>
</filter>
<filter id="filter2_d_2002_1162" x="39.687" y="600.643" width="35.5483" height="39.7749" filterUnits="userSpaceOnUse" color-interpolation-filters="sRGB">
<feFlood flood-opacity="0" result="BackgroundImageFix"/>
<feColorMatrix in="SourceAlpha" type="matrix" values="0 0 0 0 0 0 0 0 0 0 0 0 0 0 0 0 0 0 127 0" result="hardAlpha"/>
<feOffset dy="10"/>
<feGaussianBlur stdDeviation="2"/>
<feComposite in2="hardAlpha" operator="out"/>
<feColorMatrix type="matrix" values="0 0 0 0 0 0 0 0 0 0 0 0 0 0 0 0 0 0 0.25 0"/>
<feBlend mode="normal" in2="BackgroundImageFix" result="effect1_dropShadow_2002_1162"/>
<feBlend mode="normal" in="SourceGraphic" in2="effect1_dropShadow_2002_1162" result="shape"/>
</filter>
<filter id="filter3_d_2002_1162" x="1188.69" y="232.643" width="35.5483" height="39.7749" filterUnits="userSpaceOnUse" color-interpolation-filters="sRGB">
<feFlood flood-opacity="0" result="BackgroundImageFix"/>
<feColorMatrix in="SourceAlpha" type="matrix" values="0 0 0 0 0 0 0 0 0 0 0 0 0 0 0 0 0 0 127 0" result="hardAlpha"/>
<feOffset dy="10"/>
<feGaussianBlur stdDeviation="2"/>
<feComposite in2="hardAlpha" operator="out"/>
<feColorMatrix type="matrix" values="0 0 0 0 0 0 0 0 0 0 0 0 0 0 0 0 0 0 0.25 0"/>
<feBlend mode="normal" in2="BackgroundImageFix" result="effect1_dropShadow_2002_1162"/>
<feBlend mode="normal" in="SourceGraphic" in2="effect1_dropShadow_2002_1162" result="shape"/>
</filter>
<filter id="filter4_d_2002_1162" x="1113.64" y="493.518" width="47.1006" height="62.0303" filterUnits="userSpaceOnUse" color-interpolation-filters="sRGB">
<feFlood flood-opacity="0" result="BackgroundImageFix"/>
<feColorMatrix in="SourceAlpha" type="matrix" values="0 0 0 0 0 0 0 0 0 0 0 0 0 0 0 0 0 0 127 0" result="hardAlpha"/>
<feOffset dy="10"/>
<feGaussianBlur stdDeviation="2"/>
<feComposite in2="hardAlpha" operator="out"/>
<feColorMatrix type="matrix" values="0 0 0 0 0 0 0 0 0 0 0 0 0 0 0 0 0 0 0.25 0"/>
<feBlend mode="normal" in2="BackgroundImageFix" result="effect1_dropShadow_2002_1162"/>
<feBlend mode="normal" in="SourceGraphic" in2="effect1_dropShadow_2002_1162" result="shape"/>
</filter>
<filter id="filter5_d_2002_1162" x="391.031" y="37.4731" width="47.7217" height="61.1091" filterUnits="userSpaceOnUse" color-interpolation-filters="sRGB">
<feFlood flood-opacity="0" result="BackgroundImageFix"/>
<feColorMatrix in="SourceAlpha" type="matrix" values="0 0 0 0 0 0 0 0 0 0 0 0 0 0 0 0 0 0 127 0" result="hardAlpha"/>
<feOffset dy="10"/>
<feGaussianBlur stdDeviation="2"/>
<feComposite in2="hardAlpha" operator="out"/>
<feColorMatrix type="matrix" values="0 0 0 0 0 0 0 0 0 0 0 0 0 0 0 0 0 0 0.25 0"/>
<feBlend mode="normal" in2="BackgroundImageFix" result="effect1_dropShadow_2002_1162"/>
<feBlend mode="normal" in="SourceGraphic" in2="effect1_dropShadow_2002_1162" result="shape"/>
</filter>
<filter id="filter6_d_2002_1162" x="222.031" y="618.473" width="47.7217" height="61.1091" filterUnits="userSpaceOnUse" color-interpolation-filters="sRGB">
<feFlood flood-opacity="0" result="BackgroundImageFix"/>
<feColorMatrix in="SourceAlpha" type="matrix" values="0 0 0 0 0 0 0 0 0 0 0 0 0 0 0 0 0 0 127 0" result="hardAlpha"/>
<feOffset dy="10"/>
<feGaussianBlur stdDeviation="2"/>
<feComposite in2="hardAlpha" operator="out"/>
<feColorMatrix type="matrix" values="0 0 0 0 0 0 0 0 0 0 0 0 0 0 0 0 0 0 0.25 0"/>
<feBlend mode="normal" in2="BackgroundImageFix" result="effect1_dropShadow_2002_1162"/>
<feBlend mode="normal" in="SourceGraphic" in2="effect1_dropShadow_2002_1162" result="shape"/>
</filter>
<filter id="filter7_d_2002_1162" x="927.031" y="50.4731" width="47.7217" height="61.1091" filterUnits="userSpaceOnUse" color-interpolation-filters="sRGB">
<feFlood flood-opacity="0" result="BackgroundImageFix"/>
<feColorMatrix in="SourceAlpha" type="matrix" values="0 0 0 0 0 0 0 0 0 0 0 0 0 0 0 0 0 0 127 0" result="hardAlpha"/>
<feOffset dy="10"/>
<feGaussianBlur stdDeviation="2"/>
<feComposite in2="hardAlpha" operator="out"/>
<feColorMatrix type="matrix" values="0 0 0 0 0 0 0 0 0 0 0 0 0 0 0 0 0 0 0.25 0"/>
<feBlend mode="normal" in2="BackgroundImageFix" result="effect1_dropShadow_2002_1162"/>
<feBlend mode="normal" in="SourceGraphic" in2="effect1_dropShadow_2002_1162" result="shape"/>
</filter>
</defs>
</svg>
